<mxfile host="app.diagrams.net" modified="2024-05-21T14:44:14.638Z" agent="Mozilla/5.0 (Windows NT 10.0; Win64; x64) AppleWebKit/537.36 (KHTML, like Gecko) Chrome/122.0.0.0 YaBrowser/24.4.0.0 Safari/537.36" etag="6u3uaQbj2Yx9JXhUcTsi" version="24.4.4" type="device">
  <diagram id="iCsF3zvDXGZwwIRkUBMl" name="lab_03">
    <mxGraphModel dx="3385" dy="2073" grid="1" gridSize="10" guides="1" tooltips="1" connect="1" arrows="1" fold="1" page="1" pageScale="1" pageWidth="1654" pageHeight="1169" background="none" math="0" shadow="0">
      <root>
        <mxCell id="0" />
        <mxCell id="1" parent="0" />
        <mxCell id="YvYd5aY6UWbIAvhugofM-1" value="Facade" style="swimlane;fontStyle=1;align=center;verticalAlign=top;childLayout=stackLayout;horizontal=1;startSize=26;horizontalStack=0;resizeParent=1;resizeParentMax=0;resizeLast=0;collapsible=1;marginBottom=0;" parent="1" vertex="1">
          <mxGeometry x="1312.5" y="910" width="100" height="80" as="geometry" />
        </mxCell>
        <mxCell id="YvYd5aY6UWbIAvhugofM-3" value="" style="line;strokeWidth=1;fillColor=none;align=left;verticalAlign=middle;spacingTop=-1;spacingLeft=3;spacingRight=3;rotatable=0;labelPosition=right;points=[];portConstraint=eastwest;" parent="YvYd5aY6UWbIAvhugofM-1" vertex="1">
          <mxGeometry y="26" width="100" height="8" as="geometry" />
        </mxCell>
        <mxCell id="YvYd5aY6UWbIAvhugofM-4" value="+ execute()&#xa;+ reverseable()" style="text;strokeColor=none;fillColor=none;align=left;verticalAlign=top;spacingLeft=4;spacingRight=4;overflow=hidden;rotatable=0;points=[[0,0.5],[1,0.5]];portConstraint=eastwest;" parent="YvYd5aY6UWbIAvhugofM-1" vertex="1">
          <mxGeometry y="34" width="100" height="46" as="geometry" />
        </mxCell>
        <mxCell id="q7ZRytTbzjanhuIPvE7e-62" style="edgeStyle=orthogonalEdgeStyle;rounded=1;orthogonalLoop=1;jettySize=auto;html=1;exitX=0.5;exitY=0;exitDx=0;exitDy=0;endArrow=block;endFill=0;endSize=16;" parent="1" source="YvYd5aY6UWbIAvhugofM-9" target="2_hk0qNhQiP1PXoeNQw0-13" edge="1">
          <mxGeometry relative="1" as="geometry">
            <Array as="points">
              <mxPoint x="-350" y="1220" />
              <mxPoint x="-165" y="1220" />
            </Array>
          </mxGeometry>
        </mxCell>
        <mxCell id="YvYd5aY6UWbIAvhugofM-9" value="BaseModelDirector" style="swimlane;fontStyle=1;align=center;verticalAlign=top;childLayout=stackLayout;horizontal=1;startSize=26;horizontalStack=0;resizeParent=1;resizeParentMax=0;resizeLast=0;collapsible=1;marginBottom=0;" parent="1" vertex="1">
          <mxGeometry x="-420" y="1254" width="140" height="60" as="geometry" />
        </mxCell>
        <mxCell id="YvYd5aY6UWbIAvhugofM-11" value="" style="line;strokeWidth=1;fillColor=none;align=left;verticalAlign=middle;spacingTop=-1;spacingLeft=3;spacingRight=3;rotatable=0;labelPosition=right;points=[];portConstraint=eastwest;" parent="YvYd5aY6UWbIAvhugofM-9" vertex="1">
          <mxGeometry y="26" width="140" height="8" as="geometry" />
        </mxCell>
        <mxCell id="YvYd5aY6UWbIAvhugofM-12" value="+ create()" style="text;strokeColor=none;fillColor=none;align=left;verticalAlign=top;spacingLeft=4;spacingRight=4;overflow=hidden;rotatable=0;points=[[0,0.5],[1,0.5]];portConstraint=eastwest;" parent="YvYd5aY6UWbIAvhugofM-9" vertex="1">
          <mxGeometry y="34" width="140" height="26" as="geometry" />
        </mxCell>
        <mxCell id="q7ZRytTbzjanhuIPvE7e-56" style="edgeStyle=orthogonalEdgeStyle;rounded=1;orthogonalLoop=1;jettySize=auto;html=1;exitX=0.5;exitY=0;exitDx=0;exitDy=0;endArrow=block;endFill=0;endSize=16;" parent="1" source="YvYd5aY6UWbIAvhugofM-13" target="YvYd5aY6UWbIAvhugofM-12" edge="1">
          <mxGeometry relative="1" as="geometry">
            <Array as="points">
              <mxPoint x="-355" y="1320" />
              <mxPoint x="-355" y="1320" />
            </Array>
          </mxGeometry>
        </mxCell>
        <mxCell id="YvYd5aY6UWbIAvhugofM-13" value="CarcasModelDirector" style="swimlane;fontStyle=1;align=center;verticalAlign=top;childLayout=stackLayout;horizontal=1;startSize=26;horizontalStack=0;resizeParent=1;resizeParentMax=0;resizeLast=0;collapsible=1;marginBottom=0;" parent="1" vertex="1">
          <mxGeometry x="-420" y="1367" width="130" height="60" as="geometry" />
        </mxCell>
        <mxCell id="YvYd5aY6UWbIAvhugofM-14" value="" style="line;strokeWidth=1;fillColor=none;align=left;verticalAlign=middle;spacingTop=-1;spacingLeft=3;spacingRight=3;rotatable=0;labelPosition=right;points=[];portConstraint=eastwest;" parent="YvYd5aY6UWbIAvhugofM-13" vertex="1">
          <mxGeometry y="26" width="130" height="8" as="geometry" />
        </mxCell>
        <mxCell id="YvYd5aY6UWbIAvhugofM-15" value="+ create()" style="text;strokeColor=none;fillColor=none;align=left;verticalAlign=top;spacingLeft=4;spacingRight=4;overflow=hidden;rotatable=0;points=[[0,0.5],[1,0.5]];portConstraint=eastwest;" parent="YvYd5aY6UWbIAvhugofM-13" vertex="1">
          <mxGeometry y="34" width="130" height="26" as="geometry" />
        </mxCell>
        <mxCell id="q7ZRytTbzjanhuIPvE7e-61" style="edgeStyle=orthogonalEdgeStyle;rounded=1;orthogonalLoop=1;jettySize=auto;html=1;exitX=0.5;exitY=0;exitDx=0;exitDy=0;endArrow=block;endFill=0;endSize=16;" parent="1" source="YvYd5aY6UWbIAvhugofM-16" target="q7ZRytTbzjanhuIPvE7e-59" edge="1">
          <mxGeometry relative="1" as="geometry">
            <Array as="points">
              <mxPoint x="-180" y="1320" />
              <mxPoint x="-180" y="1320" />
            </Array>
          </mxGeometry>
        </mxCell>
        <mxCell id="YvYd5aY6UWbIAvhugofM-16" value="CameraDirector" style="swimlane;fontStyle=1;align=center;verticalAlign=top;childLayout=stackLayout;horizontal=1;startSize=26;horizontalStack=0;resizeParent=1;resizeParentMax=0;resizeLast=0;collapsible=1;marginBottom=0;" parent="1" vertex="1">
          <mxGeometry x="-237.5" y="1367" width="115" height="60" as="geometry" />
        </mxCell>
        <mxCell id="YvYd5aY6UWbIAvhugofM-17" value="" style="line;strokeWidth=1;fillColor=none;align=left;verticalAlign=middle;spacingTop=-1;spacingLeft=3;spacingRight=3;rotatable=0;labelPosition=right;points=[];portConstraint=eastwest;" parent="YvYd5aY6UWbIAvhugofM-16" vertex="1">
          <mxGeometry y="26" width="115" height="8" as="geometry" />
        </mxCell>
        <mxCell id="YvYd5aY6UWbIAvhugofM-18" value="+ create()" style="text;strokeColor=none;fillColor=none;align=left;verticalAlign=top;spacingLeft=4;spacingRight=4;overflow=hidden;rotatable=0;points=[[0,0.5],[1,0.5]];portConstraint=eastwest;" parent="YvYd5aY6UWbIAvhugofM-16" vertex="1">
          <mxGeometry y="34" width="115" height="26" as="geometry" />
        </mxCell>
        <mxCell id="q7ZRytTbzjanhuIPvE7e-67" style="edgeStyle=orthogonalEdgeStyle;rounded=1;orthogonalLoop=1;jettySize=auto;html=1;endArrow=block;endFill=0;endSize=16;" parent="1" source="YvYd5aY6UWbIAvhugofM-19" target="q7ZRytTbzjanhuIPvE7e-66" edge="1">
          <mxGeometry relative="1" as="geometry">
            <Array as="points">
              <mxPoint x="-5" y="1330" />
              <mxPoint x="-5" y="1330" />
            </Array>
          </mxGeometry>
        </mxCell>
        <mxCell id="YvYd5aY6UWbIAvhugofM-19" value="SceneDirector" style="swimlane;fontStyle=1;align=center;verticalAlign=top;childLayout=stackLayout;horizontal=1;startSize=26;horizontalStack=0;resizeParent=1;resizeParentMax=0;resizeLast=0;collapsible=1;marginBottom=0;" parent="1" vertex="1">
          <mxGeometry x="-60" y="1361" width="110" height="60" as="geometry" />
        </mxCell>
        <mxCell id="YvYd5aY6UWbIAvhugofM-20" value="" style="line;strokeWidth=1;fillColor=none;align=left;verticalAlign=middle;spacingTop=-1;spacingLeft=3;spacingRight=3;rotatable=0;labelPosition=right;points=[];portConstraint=eastwest;" parent="YvYd5aY6UWbIAvhugofM-19" vertex="1">
          <mxGeometry y="26" width="110" height="8" as="geometry" />
        </mxCell>
        <mxCell id="YvYd5aY6UWbIAvhugofM-21" value="+ create()" style="text;strokeColor=none;fillColor=none;align=left;verticalAlign=top;spacingLeft=4;spacingRight=4;overflow=hidden;rotatable=0;points=[[0,0.5],[1,0.5]];portConstraint=eastwest;" parent="YvYd5aY6UWbIAvhugofM-19" vertex="1">
          <mxGeometry y="34" width="110" height="26" as="geometry" />
        </mxCell>
        <mxCell id="YvYd5aY6UWbIAvhugofM-28" value="BaseBuilder" style="swimlane;fontStyle=1;align=center;verticalAlign=top;childLayout=stackLayout;horizontal=1;startSize=26;horizontalStack=0;resizeParent=1;resizeParentMax=0;resizeLast=0;collapsible=1;marginBottom=0;" parent="1" vertex="1">
          <mxGeometry x="-825" y="1000" width="110" height="74" as="geometry" />
        </mxCell>
        <mxCell id="YvYd5aY6UWbIAvhugofM-30" value="" style="line;strokeWidth=1;fillColor=none;align=left;verticalAlign=middle;spacingTop=-1;spacingLeft=3;spacingRight=3;rotatable=0;labelPosition=right;points=[];portConstraint=eastwest;" parent="YvYd5aY6UWbIAvhugofM-28" vertex="1">
          <mxGeometry y="26" width="110" height="8" as="geometry" />
        </mxCell>
        <mxCell id="YvYd5aY6UWbIAvhugofM-31" value="+ is_build()&#xa;+ reset()" style="text;strokeColor=none;fillColor=none;align=left;verticalAlign=top;spacingLeft=4;spacingRight=4;overflow=hidden;rotatable=0;points=[[0,0.5],[1,0.5]];portConstraint=eastwest;" parent="YvYd5aY6UWbIAvhugofM-28" vertex="1">
          <mxGeometry y="34" width="110" height="40" as="geometry" />
        </mxCell>
        <mxCell id="YvYd5aY6UWbIAvhugofM-32" value="BaseCarcasModelBuilder" style="swimlane;fontStyle=1;align=center;verticalAlign=top;childLayout=stackLayout;horizontal=1;startSize=26;horizontalStack=0;resizeParent=1;resizeParentMax=0;resizeLast=0;collapsible=1;marginBottom=0;" parent="1" vertex="1">
          <mxGeometry x="-1030" y="1150" width="160" height="120" as="geometry" />
        </mxCell>
        <mxCell id="YvYd5aY6UWbIAvhugofM-33" value="" style="line;strokeWidth=1;fillColor=none;align=left;verticalAlign=middle;spacingTop=-1;spacingLeft=3;spacingRight=3;rotatable=0;labelPosition=right;points=[];portConstraint=eastwest;" parent="YvYd5aY6UWbIAvhugofM-32" vertex="1">
          <mxGeometry y="26" width="160" height="8" as="geometry" />
        </mxCell>
        <mxCell id="YvYd5aY6UWbIAvhugofM-34" value="+ is_build()&#xa;+ reset()&#xa;+ buildPoints()&#xa;+ buildEdges()&#xa;+ buildCenter()" style="text;strokeColor=none;fillColor=none;align=left;verticalAlign=top;spacingLeft=4;spacingRight=4;overflow=hidden;rotatable=0;points=[[0,0.5],[1,0.5]];portConstraint=eastwest;" parent="YvYd5aY6UWbIAvhugofM-32" vertex="1">
          <mxGeometry y="34" width="160" height="86" as="geometry" />
        </mxCell>
        <mxCell id="YvYd5aY6UWbIAvhugofM-35" value="" style="endArrow=block;endSize=11;endFill=0;html=1;exitX=0.5;exitY=0;exitDx=0;exitDy=0;entryX=0.076;entryY=1.027;entryDx=0;entryDy=0;entryPerimeter=0;" parent="1" source="YvYd5aY6UWbIAvhugofM-32" target="YvYd5aY6UWbIAvhugofM-31" edge="1">
          <mxGeometry width="160" relative="1" as="geometry">
            <mxPoint x="-705" y="1198.15" as="sourcePoint" />
            <mxPoint x="-617.0200000000002" y="1119.996" as="targetPoint" />
            <Array as="points">
              <mxPoint x="-950" y="1110" />
              <mxPoint x="-885" y="1110" />
              <mxPoint x="-817" y="1110" />
            </Array>
          </mxGeometry>
        </mxCell>
        <mxCell id="YvYd5aY6UWbIAvhugofM-36" value="CarcasModelBuilder" style="swimlane;fontStyle=1;align=center;verticalAlign=top;childLayout=stackLayout;horizontal=1;startSize=26;horizontalStack=0;resizeParent=1;resizeParentMax=0;resizeLast=0;collapsible=1;marginBottom=0;" parent="1" vertex="1">
          <mxGeometry x="-1025" y="1310" width="150" height="120" as="geometry" />
        </mxCell>
        <mxCell id="YvYd5aY6UWbIAvhugofM-37" value="" style="line;strokeWidth=1;fillColor=none;align=left;verticalAlign=middle;spacingTop=-1;spacingLeft=3;spacingRight=3;rotatable=0;labelPosition=right;points=[];portConstraint=eastwest;" parent="YvYd5aY6UWbIAvhugofM-36" vertex="1">
          <mxGeometry y="26" width="150" height="8" as="geometry" />
        </mxCell>
        <mxCell id="YvYd5aY6UWbIAvhugofM-38" value="+ isBuild()&#xa;+ reset()&#xa;+ buildPoints()&#xa;+ buildEdges()&#xa;+ buildCenter()" style="text;strokeColor=none;fillColor=none;align=left;verticalAlign=top;spacingLeft=4;spacingRight=4;overflow=hidden;rotatable=0;points=[[0,0.5],[1,0.5]];portConstraint=eastwest;" parent="YvYd5aY6UWbIAvhugofM-36" vertex="1">
          <mxGeometry y="34" width="150" height="86" as="geometry" />
        </mxCell>
        <mxCell id="YvYd5aY6UWbIAvhugofM-39" value="" style="endArrow=block;endSize=10;endFill=0;html=1;exitX=0.5;exitY=0;exitDx=0;exitDy=0;" parent="1" source="YvYd5aY6UWbIAvhugofM-36" target="YvYd5aY6UWbIAvhugofM-34" edge="1">
          <mxGeometry width="160" relative="1" as="geometry">
            <mxPoint x="-355" y="1340" as="sourcePoint" />
            <mxPoint x="-953" y="1272" as="targetPoint" />
            <Array as="points" />
          </mxGeometry>
        </mxCell>
        <mxCell id="YvYd5aY6UWbIAvhugofM-42" value="BaseCameraBuilder" style="swimlane;fontStyle=1;align=center;verticalAlign=top;childLayout=stackLayout;horizontal=1;startSize=26;horizontalStack=0;resizeParent=1;resizeParentMax=0;resizeLast=0;collapsible=1;marginBottom=0;" parent="1" vertex="1">
          <mxGeometry x="-835" y="1155" width="150" height="110" as="geometry" />
        </mxCell>
        <mxCell id="YvYd5aY6UWbIAvhugofM-43" value="" style="line;strokeWidth=1;fillColor=none;align=left;verticalAlign=middle;spacingTop=-1;spacingLeft=3;spacingRight=3;rotatable=0;labelPosition=right;points=[];portConstraint=eastwest;" parent="YvYd5aY6UWbIAvhugofM-42" vertex="1">
          <mxGeometry y="26" width="150" height="8" as="geometry" />
        </mxCell>
        <mxCell id="YvYd5aY6UWbIAvhugofM-44" value="+ is_build()&#xa;+ reset()&#xa;+ buildPosition()&#xa;+ buildDirection()" style="text;strokeColor=none;fillColor=none;align=left;verticalAlign=top;spacingLeft=4;spacingRight=4;overflow=hidden;rotatable=0;points=[[0,0.5],[1,0.5]];portConstraint=eastwest;" parent="YvYd5aY6UWbIAvhugofM-42" vertex="1">
          <mxGeometry y="34" width="150" height="76" as="geometry" />
        </mxCell>
        <mxCell id="YvYd5aY6UWbIAvhugofM-45" value="CameraBuilder" style="swimlane;fontStyle=1;align=center;verticalAlign=top;childLayout=stackLayout;horizontal=1;startSize=26;horizontalStack=0;resizeParent=1;resizeParentMax=0;resizeLast=0;collapsible=1;marginBottom=0;" parent="1" vertex="1">
          <mxGeometry x="-835" y="1310" width="150" height="110" as="geometry" />
        </mxCell>
        <mxCell id="YvYd5aY6UWbIAvhugofM-46" value="" style="line;strokeWidth=1;fillColor=none;align=left;verticalAlign=middle;spacingTop=-1;spacingLeft=3;spacingRight=3;rotatable=0;labelPosition=right;points=[];portConstraint=eastwest;" parent="YvYd5aY6UWbIAvhugofM-45" vertex="1">
          <mxGeometry y="26" width="150" height="8" as="geometry" />
        </mxCell>
        <mxCell id="YvYd5aY6UWbIAvhugofM-47" value="+ is_build()&#xa;+ reset()&#xa;+ buildPosition()&#xa;+ buildDirection()" style="text;strokeColor=none;fillColor=none;align=left;verticalAlign=top;spacingLeft=4;spacingRight=4;overflow=hidden;rotatable=0;points=[[0,0.5],[1,0.5]];portConstraint=eastwest;" parent="YvYd5aY6UWbIAvhugofM-45" vertex="1">
          <mxGeometry y="34" width="150" height="76" as="geometry" />
        </mxCell>
        <mxCell id="YvYd5aY6UWbIAvhugofM-48" value="" style="endArrow=block;endSize=10;endFill=0;html=1;exitX=0.5;exitY=0;exitDx=0;exitDy=0;" parent="1" source="YvYd5aY6UWbIAvhugofM-45" target="YvYd5aY6UWbIAvhugofM-44" edge="1">
          <mxGeometry width="160" relative="1" as="geometry">
            <mxPoint x="-760.34" y="1300" as="sourcePoint" />
            <mxPoint x="-760" y="1270" as="targetPoint" />
            <Array as="points">
              <mxPoint x="-760.34" y="1280" />
            </Array>
          </mxGeometry>
        </mxCell>
        <mxCell id="YvYd5aY6UWbIAvhugofM-50" value="" style="endArrow=block;endSize=10;endFill=0;html=1;entryX=0.632;entryY=1;entryDx=0;entryDy=0;entryPerimeter=0;exitX=0.531;exitY=0.008;exitDx=0;exitDy=0;exitPerimeter=0;" parent="1" source="YvYd5aY6UWbIAvhugofM-42" target="YvYd5aY6UWbIAvhugofM-31" edge="1">
          <mxGeometry width="160" relative="1" as="geometry">
            <mxPoint x="-754.6600000000001" y="1150" as="sourcePoint" />
            <mxPoint x="-754.8827586206899" y="1100" as="targetPoint" />
            <Array as="points">
              <mxPoint x="-755" y="1120" />
            </Array>
          </mxGeometry>
        </mxCell>
        <mxCell id="YvYd5aY6UWbIAvhugofM-51" value="BaseSceneBuilder" style="swimlane;fontStyle=1;align=center;verticalAlign=top;childLayout=stackLayout;horizontal=1;startSize=26;horizontalStack=0;resizeParent=1;resizeParentMax=0;resizeLast=0;collapsible=1;marginBottom=0;" parent="1" vertex="1">
          <mxGeometry x="-635" y="1155" width="150" height="90" as="geometry" />
        </mxCell>
        <mxCell id="YvYd5aY6UWbIAvhugofM-52" value="" style="line;strokeWidth=1;fillColor=none;align=left;verticalAlign=middle;spacingTop=-1;spacingLeft=3;spacingRight=3;rotatable=0;labelPosition=right;points=[];portConstraint=eastwest;" parent="YvYd5aY6UWbIAvhugofM-51" vertex="1">
          <mxGeometry y="26" width="150" height="8" as="geometry" />
        </mxCell>
        <mxCell id="YvYd5aY6UWbIAvhugofM-53" value="+ is_build()&#xa;+ reset()&#xa;+ buildObjects()" style="text;strokeColor=none;fillColor=none;align=left;verticalAlign=top;spacingLeft=4;spacingRight=4;overflow=hidden;rotatable=0;points=[[0,0.5],[1,0.5]];portConstraint=eastwest;" parent="YvYd5aY6UWbIAvhugofM-51" vertex="1">
          <mxGeometry y="34" width="150" height="56" as="geometry" />
        </mxCell>
        <mxCell id="YvYd5aY6UWbIAvhugofM-61" value="SceneBuilder" style="swimlane;fontStyle=1;align=center;verticalAlign=top;childLayout=stackLayout;horizontal=1;startSize=26;horizontalStack=0;resizeParent=1;resizeParentMax=0;resizeLast=0;collapsible=1;marginBottom=0;" parent="1" vertex="1">
          <mxGeometry x="-635" y="1283" width="150" height="90" as="geometry" />
        </mxCell>
        <mxCell id="YvYd5aY6UWbIAvhugofM-62" value="" style="line;strokeWidth=1;fillColor=none;align=left;verticalAlign=middle;spacingTop=-1;spacingLeft=3;spacingRight=3;rotatable=0;labelPosition=right;points=[];portConstraint=eastwest;" parent="YvYd5aY6UWbIAvhugofM-61" vertex="1">
          <mxGeometry y="26" width="150" height="8" as="geometry" />
        </mxCell>
        <mxCell id="YvYd5aY6UWbIAvhugofM-63" value="+ is_build()&#xa;+ reset()&#xa;+ buildObjects()" style="text;strokeColor=none;fillColor=none;align=left;verticalAlign=top;spacingLeft=4;spacingRight=4;overflow=hidden;rotatable=0;points=[[0,0.5],[1,0.5]];portConstraint=eastwest;" parent="YvYd5aY6UWbIAvhugofM-61" vertex="1">
          <mxGeometry y="34" width="150" height="56" as="geometry" />
        </mxCell>
        <mxCell id="YvYd5aY6UWbIAvhugofM-65" value="" style="endArrow=block;endSize=11;endFill=0;html=1;exitX=0.5;exitY=0;exitDx=0;exitDy=0;entryX=0.918;entryY=0.975;entryDx=0;entryDy=0;entryPerimeter=0;" parent="1" source="YvYd5aY6UWbIAvhugofM-51" target="YvYd5aY6UWbIAvhugofM-31" edge="1">
          <mxGeometry width="160" relative="1" as="geometry">
            <mxPoint x="-940" y="1160" as="sourcePoint" />
            <mxPoint x="-806.6400000000001" y="1085.08" as="targetPoint" />
            <Array as="points">
              <mxPoint x="-560" y="1120" />
              <mxPoint x="-724" y="1120" />
            </Array>
          </mxGeometry>
        </mxCell>
        <mxCell id="YvYd5aY6UWbIAvhugofM-66" value="" style="endArrow=block;endSize=10;endFill=0;html=1;" parent="1" source="YvYd5aY6UWbIAvhugofM-61" target="YvYd5aY6UWbIAvhugofM-53" edge="1">
          <mxGeometry width="160" relative="1" as="geometry">
            <mxPoint x="-750" y="1320" as="sourcePoint" />
            <mxPoint x="-750.2437735849057" y="1275" as="targetPoint" />
            <Array as="points" />
          </mxGeometry>
        </mxCell>
        <mxCell id="YvYd5aY6UWbIAvhugofM-73" value="BaseObject" style="swimlane;fontStyle=1;align=center;verticalAlign=top;childLayout=stackLayout;horizontal=1;startSize=26;horizontalStack=0;resizeParent=1;resizeParentMax=0;resizeLast=0;collapsible=1;marginBottom=0;" parent="1" vertex="1">
          <mxGeometry x="160" y="30" width="160" height="140" as="geometry" />
        </mxCell>
        <mxCell id="YvYd5aY6UWbIAvhugofM-75" value="" style="line;strokeWidth=1;fillColor=none;align=left;verticalAlign=middle;spacingTop=-1;spacingLeft=3;spacingRight=3;rotatable=0;labelPosition=right;points=[];portConstraint=eastwest;" parent="YvYd5aY6UWbIAvhugofM-73" vertex="1">
          <mxGeometry y="26" width="160" height="8" as="geometry" />
        </mxCell>
        <mxCell id="YvYd5aY6UWbIAvhugofM-76" value="+ transform() &#xa;+ add()&#xa;+ clone()&#xa;+ remove()&#xa;+ is_composite()&#xa;+ is_visible()" style="text;strokeColor=none;fillColor=none;align=left;verticalAlign=top;spacingLeft=4;spacingRight=4;overflow=hidden;rotatable=0;points=[[0,0.5],[1,0.5]];portConstraint=eastwest;" parent="YvYd5aY6UWbIAvhugofM-73" vertex="1">
          <mxGeometry y="34" width="160" height="106" as="geometry" />
        </mxCell>
        <mxCell id="YvYd5aY6UWbIAvhugofM-79" value="CarcasModel" style="swimlane;fontStyle=1;align=center;verticalAlign=top;childLayout=stackLayout;horizontal=1;startSize=26;horizontalStack=0;resizeParent=1;resizeParentMax=0;resizeLast=0;collapsible=1;marginBottom=0;" parent="1" vertex="1">
          <mxGeometry x="20" y="610" width="160" height="140" as="geometry" />
        </mxCell>
        <mxCell id="YvYd5aY6UWbIAvhugofM-80" value="" style="line;strokeWidth=1;fillColor=none;align=left;verticalAlign=middle;spacingTop=-1;spacingLeft=3;spacingRight=3;rotatable=0;labelPosition=right;points=[];portConstraint=eastwest;" parent="YvYd5aY6UWbIAvhugofM-79" vertex="1">
          <mxGeometry y="26" width="160" height="8" as="geometry" />
        </mxCell>
        <mxCell id="YvYd5aY6UWbIAvhugofM-81" value="+ transform()&#xa;+ add()&#xa;+ clone()&#xa;+ remove()&#xa;+ is_composite()&#xa;+ is_visible()" style="text;strokeColor=none;fillColor=none;align=left;verticalAlign=top;spacingLeft=4;spacingRight=4;overflow=hidden;rotatable=0;points=[[0,0.5],[1,0.5]];portConstraint=eastwest;" parent="YvYd5aY6UWbIAvhugofM-79" vertex="1">
          <mxGeometry y="34" width="160" height="106" as="geometry" />
        </mxCell>
        <mxCell id="YvYd5aY6UWbIAvhugofM-82" value="VisibleObject" style="swimlane;fontStyle=1;align=center;verticalAlign=top;childLayout=stackLayout;horizontal=1;startSize=26;horizontalStack=0;resizeParent=1;resizeParentMax=0;resizeLast=0;collapsible=1;marginBottom=0;" parent="1" vertex="1">
          <mxGeometry x="20" y="270" width="160" height="70" as="geometry" />
        </mxCell>
        <mxCell id="YvYd5aY6UWbIAvhugofM-83" value="" style="line;strokeWidth=1;fillColor=none;align=left;verticalAlign=middle;spacingTop=-1;spacingLeft=3;spacingRight=3;rotatable=0;labelPosition=right;points=[];portConstraint=eastwest;" parent="YvYd5aY6UWbIAvhugofM-82" vertex="1">
          <mxGeometry y="26" width="160" height="8" as="geometry" />
        </mxCell>
        <mxCell id="YvYd5aY6UWbIAvhugofM-84" value="+ is_visible()" style="text;strokeColor=none;fillColor=none;align=left;verticalAlign=top;spacingLeft=4;spacingRight=4;overflow=hidden;rotatable=0;points=[[0,0.5],[1,0.5]];portConstraint=eastwest;" parent="YvYd5aY6UWbIAvhugofM-82" vertex="1">
          <mxGeometry y="34" width="160" height="36" as="geometry" />
        </mxCell>
        <mxCell id="YvYd5aY6UWbIAvhugofM-85" value="InvisibleObject" style="swimlane;fontStyle=1;align=center;verticalAlign=top;childLayout=stackLayout;horizontal=1;startSize=26;horizontalStack=0;resizeParent=1;resizeParentMax=0;resizeLast=0;collapsible=1;marginBottom=0;" parent="1" vertex="1">
          <mxGeometry x="220" y="270" width="160" height="70" as="geometry" />
        </mxCell>
        <mxCell id="YvYd5aY6UWbIAvhugofM-86" value="" style="line;strokeWidth=1;fillColor=none;align=left;verticalAlign=middle;spacingTop=-1;spacingLeft=3;spacingRight=3;rotatable=0;labelPosition=right;points=[];portConstraint=eastwest;" parent="YvYd5aY6UWbIAvhugofM-85" vertex="1">
          <mxGeometry y="26" width="160" height="8" as="geometry" />
        </mxCell>
        <mxCell id="YvYd5aY6UWbIAvhugofM-87" value="+ is_visible()" style="text;strokeColor=none;fillColor=none;align=left;verticalAlign=top;spacingLeft=4;spacingRight=4;overflow=hidden;rotatable=0;points=[[0,0.5],[1,0.5]];portConstraint=eastwest;" parent="YvYd5aY6UWbIAvhugofM-85" vertex="1">
          <mxGeometry y="34" width="160" height="36" as="geometry" />
        </mxCell>
        <mxCell id="YvYd5aY6UWbIAvhugofM-88" value="Camera" style="swimlane;fontStyle=1;align=center;verticalAlign=top;childLayout=stackLayout;horizontal=1;startSize=26;horizontalStack=0;resizeParent=1;resizeParentMax=0;resizeLast=0;collapsible=1;marginBottom=0;" parent="1" vertex="1">
          <mxGeometry x="220" y="380" width="160" height="120" as="geometry" />
        </mxCell>
        <mxCell id="YvYd5aY6UWbIAvhugofM-89" value="" style="line;strokeWidth=1;fillColor=none;align=left;verticalAlign=middle;spacingTop=-1;spacingLeft=3;spacingRight=3;rotatable=0;labelPosition=right;points=[];portConstraint=eastwest;" parent="YvYd5aY6UWbIAvhugofM-88" vertex="1">
          <mxGeometry y="26" width="160" height="8" as="geometry" />
        </mxCell>
        <mxCell id="YvYd5aY6UWbIAvhugofM-90" value="+ transform()&#xa;+ add()&#xa;+ clone()&#xa;+ remove()&#xa;" style="text;strokeColor=none;fillColor=none;align=left;verticalAlign=top;spacingLeft=4;spacingRight=4;overflow=hidden;rotatable=0;points=[[0,0.5],[1,0.5]];portConstraint=eastwest;" parent="YvYd5aY6UWbIAvhugofM-88" vertex="1">
          <mxGeometry y="34" width="160" height="86" as="geometry" />
        </mxCell>
        <mxCell id="YvYd5aY6UWbIAvhugofM-91" value="Composite" style="swimlane;fontStyle=1;align=center;verticalAlign=top;childLayout=stackLayout;horizontal=1;startSize=26;horizontalStack=0;resizeParent=1;resizeParentMax=0;resizeLast=0;collapsible=1;marginBottom=0;" parent="1" vertex="1">
          <mxGeometry x="425" y="270" width="160" height="130" as="geometry" />
        </mxCell>
        <mxCell id="YvYd5aY6UWbIAvhugofM-92" value="" style="line;strokeWidth=1;fillColor=none;align=left;verticalAlign=middle;spacingTop=-1;spacingLeft=3;spacingRight=3;rotatable=0;labelPosition=right;points=[];portConstraint=eastwest;" parent="YvYd5aY6UWbIAvhugofM-91" vertex="1">
          <mxGeometry y="26" width="160" height="8" as="geometry" />
        </mxCell>
        <mxCell id="YvYd5aY6UWbIAvhugofM-93" value="+ transform()&#xa;+ accept()&#xa;+ add()&#xa;+ clone()&#xa;+ remove()&#xa;+ is_composite()&#xa;" style="text;strokeColor=none;fillColor=none;align=left;verticalAlign=top;spacingLeft=4;spacingRight=4;overflow=hidden;rotatable=0;points=[[0,0.5],[1,0.5]];portConstraint=eastwest;" parent="YvYd5aY6UWbIAvhugofM-91" vertex="1">
          <mxGeometry y="34" width="160" height="96" as="geometry" />
        </mxCell>
        <mxCell id="YvYd5aY6UWbIAvhugofM-94" value="" style="endArrow=block;endSize=11;endFill=0;html=1;exitX=0.5;exitY=0;exitDx=0;exitDy=0;" parent="1" source="YvYd5aY6UWbIAvhugofM-91" target="YvYd5aY6UWbIAvhugofM-76" edge="1">
          <mxGeometry width="160" relative="1" as="geometry">
            <mxPoint x="514.02" y="210" as="sourcePoint" />
            <mxPoint x="350" y="128" as="targetPoint" />
            <Array as="points">
              <mxPoint x="505" y="200" />
              <mxPoint x="240" y="200" />
            </Array>
          </mxGeometry>
        </mxCell>
        <mxCell id="YvYd5aY6UWbIAvhugofM-95" value="" style="endArrow=none;html=1;exitX=0.5;exitY=0;exitDx=0;exitDy=0;" parent="1" source="YvYd5aY6UWbIAvhugofM-85" edge="1">
          <mxGeometry width="50" height="50" relative="1" as="geometry">
            <mxPoint x="460" y="330" as="sourcePoint" />
            <mxPoint x="300" y="200" as="targetPoint" />
          </mxGeometry>
        </mxCell>
        <mxCell id="YvYd5aY6UWbIAvhugofM-96" value="" style="endArrow=none;html=1;exitX=0.5;exitY=0;exitDx=0;exitDy=0;" parent="1" source="YvYd5aY6UWbIAvhugofM-82" edge="1">
          <mxGeometry width="50" height="50" relative="1" as="geometry">
            <mxPoint x="310" y="280" as="sourcePoint" />
            <mxPoint x="260" y="200" as="targetPoint" />
            <Array as="points">
              <mxPoint x="100" y="200" />
            </Array>
          </mxGeometry>
        </mxCell>
        <mxCell id="YvYd5aY6UWbIAvhugofM-97" value="1...*" style="endArrow=open;html=1;endSize=12;startArrow=diamondThin;startSize=14;startFill=0;edgeStyle=orthogonalEdgeStyle;align=left;verticalAlign=bottom;exitX=1;exitY=0.5;exitDx=0;exitDy=0;entryX=1.01;entryY=0.45;entryDx=0;entryDy=0;entryPerimeter=0;" parent="1" source="YvYd5aY6UWbIAvhugofM-93" target="YvYd5aY6UWbIAvhugofM-76" edge="1">
          <mxGeometry x="0.9359" y="18" relative="1" as="geometry">
            <mxPoint x="400" y="220" as="sourcePoint" />
            <mxPoint x="560" y="220" as="targetPoint" />
            <Array as="points">
              <mxPoint x="620" y="352" />
              <mxPoint x="620" y="112" />
            </Array>
            <mxPoint as="offset" />
          </mxGeometry>
        </mxCell>
        <mxCell id="YvYd5aY6UWbIAvhugofM-98" value="" style="endArrow=block;endSize=10;endFill=0;html=1;exitX=0.5;exitY=0;exitDx=0;exitDy=0;" parent="1" source="YvYd5aY6UWbIAvhugofM-88" target="YvYd5aY6UWbIAvhugofM-87" edge="1">
          <mxGeometry width="160" relative="1" as="geometry">
            <mxPoint x="439.6500000000001" y="735.8800000000001" as="sourcePoint" />
            <mxPoint x="439.52" y="654" as="targetPoint" />
            <Array as="points">
              <mxPoint x="300" y="360" />
            </Array>
          </mxGeometry>
        </mxCell>
        <mxCell id="YvYd5aY6UWbIAvhugofM-100" value="Edge" style="swimlane;fontStyle=1;align=center;verticalAlign=top;childLayout=stackLayout;horizontal=1;startSize=26;horizontalStack=0;resizeParent=1;resizeParentMax=0;resizeLast=0;collapsible=1;marginBottom=0;" parent="1" vertex="1">
          <mxGeometry x="-70" y="852" width="160" height="106" as="geometry" />
        </mxCell>
        <mxCell id="YvYd5aY6UWbIAvhugofM-102" value="" style="line;strokeWidth=1;fillColor=none;align=left;verticalAlign=middle;spacingTop=-1;spacingLeft=3;spacingRight=3;rotatable=0;labelPosition=right;points=[];portConstraint=eastwest;" parent="YvYd5aY6UWbIAvhugofM-100" vertex="1">
          <mxGeometry y="26" width="160" height="8" as="geometry" />
        </mxCell>
        <mxCell id="YvYd5aY6UWbIAvhugofM-103" value="+ getFirstId()&#xa;+ getSecondId()&#xa;+ setFirstId()&#xa;+ setSecondId()" style="text;strokeColor=none;fillColor=none;align=left;verticalAlign=top;spacingLeft=4;spacingRight=4;overflow=hidden;rotatable=0;points=[[0,0.5],[1,0.5]];portConstraint=eastwest;" parent="YvYd5aY6UWbIAvhugofM-100" vertex="1">
          <mxGeometry y="34" width="160" height="72" as="geometry" />
        </mxCell>
        <mxCell id="YvYd5aY6UWbIAvhugofM-104" value="Point" style="swimlane;fontStyle=1;align=center;verticalAlign=top;childLayout=stackLayout;horizontal=1;startSize=26;horizontalStack=0;resizeParent=1;resizeParentMax=0;resizeLast=0;collapsible=1;marginBottom=0;" parent="1" vertex="1">
          <mxGeometry x="-490" y="837" width="160" height="136" as="geometry" />
        </mxCell>
        <mxCell id="YvYd5aY6UWbIAvhugofM-106" value="" style="line;strokeWidth=1;fillColor=none;align=left;verticalAlign=middle;spacingTop=-1;spacingLeft=3;spacingRight=3;rotatable=0;labelPosition=right;points=[];portConstraint=eastwest;" parent="YvYd5aY6UWbIAvhugofM-104" vertex="1">
          <mxGeometry y="26" width="160" height="8" as="geometry" />
        </mxCell>
        <mxCell id="YvYd5aY6UWbIAvhugofM-107" value="+ getX()&#xa;+ getY()&#xa;+ getZ()&#xa;+ setX()&#xa;+ setY()&#xa;+ setZ()" style="text;strokeColor=none;fillColor=none;align=left;verticalAlign=top;spacingLeft=4;spacingRight=4;overflow=hidden;rotatable=0;points=[[0,0.5],[1,0.5]];portConstraint=eastwest;" parent="YvYd5aY6UWbIAvhugofM-104" vertex="1">
          <mxGeometry y="34" width="160" height="102" as="geometry" />
        </mxCell>
        <mxCell id="YvYd5aY6UWbIAvhugofM-108" value="Element" style="swimlane;fontStyle=1;align=center;verticalAlign=top;childLayout=stackLayout;horizontal=1;startSize=26;horizontalStack=0;resizeParent=1;resizeParentMax=0;resizeLast=0;collapsible=1;marginBottom=0;" parent="1" vertex="1">
          <mxGeometry x="-280" y="850" width="160" height="110" as="geometry" />
        </mxCell>
        <mxCell id="YvYd5aY6UWbIAvhugofM-110" value="" style="line;strokeWidth=1;fillColor=none;align=left;verticalAlign=middle;spacingTop=-1;spacingLeft=3;spacingRight=3;rotatable=0;labelPosition=right;points=[];portConstraint=eastwest;" parent="YvYd5aY6UWbIAvhugofM-108" vertex="1">
          <mxGeometry y="26" width="160" height="8" as="geometry" />
        </mxCell>
        <mxCell id="YvYd5aY6UWbIAvhugofM-111" value="+ getPoints()&#xa;+ getEdges()&#xa;+ setPoints()&#xa;+ setEdges()" style="text;strokeColor=none;fillColor=none;align=left;verticalAlign=top;spacingLeft=4;spacingRight=4;overflow=hidden;rotatable=0;points=[[0,0.5],[1,0.5]];portConstraint=eastwest;" parent="YvYd5aY6UWbIAvhugofM-108" vertex="1">
          <mxGeometry y="34" width="160" height="76" as="geometry" />
        </mxCell>
        <mxCell id="YvYd5aY6UWbIAvhugofM-112" value="" style="endArrow=open;html=1;endSize=12;startArrow=diamondThin;startSize=14;startFill=1;edgeStyle=orthogonalEdgeStyle;align=left;verticalAlign=bottom;exitX=0;exitY=0.5;exitDx=0;exitDy=0;entryX=1;entryY=0.5;entryDx=0;entryDy=0;" parent="1" source="YvYd5aY6UWbIAvhugofM-111" target="YvYd5aY6UWbIAvhugofM-107" edge="1">
          <mxGeometry x="-1" y="3" relative="1" as="geometry">
            <mxPoint x="-280" y="1030" as="sourcePoint" />
            <mxPoint x="-320" y="930" as="targetPoint" />
          </mxGeometry>
        </mxCell>
        <mxCell id="YvYd5aY6UWbIAvhugofM-113" value="" style="endArrow=open;html=1;endSize=12;startArrow=diamondThin;startSize=14;startFill=1;edgeStyle=orthogonalEdgeStyle;align=left;verticalAlign=bottom;" parent="1" source="YvYd5aY6UWbIAvhugofM-111" target="YvYd5aY6UWbIAvhugofM-103" edge="1">
          <mxGeometry x="-1" y="3" relative="1" as="geometry">
            <mxPoint x="-50.320000000000164" y="936.8" as="sourcePoint" />
            <mxPoint x="-110" y="980" as="targetPoint" />
          </mxGeometry>
        </mxCell>
        <mxCell id="YvYd5aY6UWbIAvhugofM-114" value="" style="endArrow=open;html=1;endSize=12;startArrow=diamondThin;startSize=14;startFill=1;edgeStyle=orthogonalEdgeStyle;align=left;verticalAlign=bottom;exitX=0;exitY=0.5;exitDx=0;exitDy=0;" parent="1" source="YvYd5aY6UWbIAvhugofM-81" target="YvYd5aY6UWbIAvhugofM-108" edge="1">
          <mxGeometry x="-1" y="3" relative="1" as="geometry">
            <mxPoint x="70" y="750" as="sourcePoint" />
            <mxPoint x="420" y="739" as="targetPoint" />
            <Array as="points">
              <mxPoint x="-200" y="697" />
            </Array>
          </mxGeometry>
        </mxCell>
        <mxCell id="YvYd5aY6UWbIAvhugofM-116" value="AbstaractFactory" style="swimlane;fontStyle=1;align=center;verticalAlign=top;childLayout=stackLayout;horizontal=1;startSize=26;horizontalStack=0;resizeParent=1;resizeParentMax=0;resizeLast=0;collapsible=1;marginBottom=0;" parent="1" vertex="1">
          <mxGeometry x="1340" y="680" width="140" height="60" as="geometry" />
        </mxCell>
        <mxCell id="YvYd5aY6UWbIAvhugofM-118" value="" style="line;strokeWidth=1;fillColor=none;align=left;verticalAlign=middle;spacingTop=-1;spacingLeft=3;spacingRight=3;rotatable=0;labelPosition=right;points=[];portConstraint=eastwest;" parent="YvYd5aY6UWbIAvhugofM-116" vertex="1">
          <mxGeometry y="26" width="140" height="8" as="geometry" />
        </mxCell>
        <mxCell id="YvYd5aY6UWbIAvhugofM-119" value="+ create()" style="text;strokeColor=none;fillColor=none;align=left;verticalAlign=top;spacingLeft=4;spacingRight=4;overflow=hidden;rotatable=0;points=[[0,0.5],[1,0.5]];portConstraint=eastwest;" parent="YvYd5aY6UWbIAvhugofM-116" vertex="1">
          <mxGeometry y="34" width="140" height="26" as="geometry" />
        </mxCell>
        <mxCell id="YvYd5aY6UWbIAvhugofM-120" value="QtFactory" style="swimlane;fontStyle=1;align=center;verticalAlign=top;childLayout=stackLayout;horizontal=1;startSize=26;horizontalStack=0;resizeParent=1;resizeParentMax=0;resizeLast=0;collapsible=1;marginBottom=0;" parent="1" vertex="1">
          <mxGeometry x="1340" y="782" width="140" height="60" as="geometry" />
        </mxCell>
        <mxCell id="YvYd5aY6UWbIAvhugofM-121" value="" style="line;strokeWidth=1;fillColor=none;align=left;verticalAlign=middle;spacingTop=-1;spacingLeft=3;spacingRight=3;rotatable=0;labelPosition=right;points=[];portConstraint=eastwest;" parent="YvYd5aY6UWbIAvhugofM-120" vertex="1">
          <mxGeometry y="26" width="140" height="8" as="geometry" />
        </mxCell>
        <mxCell id="YvYd5aY6UWbIAvhugofM-122" value="+ create()" style="text;strokeColor=none;fillColor=none;align=left;verticalAlign=top;spacingLeft=4;spacingRight=4;overflow=hidden;rotatable=0;points=[[0,0.5],[1,0.5]];portConstraint=eastwest;" parent="YvYd5aY6UWbIAvhugofM-120" vertex="1">
          <mxGeometry y="34" width="140" height="26" as="geometry" />
        </mxCell>
        <mxCell id="YvYd5aY6UWbIAvhugofM-123" value="" style="endArrow=block;endSize=16;endFill=0;html=1;exitX=0.5;exitY=0;exitDx=0;exitDy=0;" parent="1" source="YvYd5aY6UWbIAvhugofM-120" target="YvYd5aY6UWbIAvhugofM-119" edge="1">
          <mxGeometry y="-20" width="160" relative="1" as="geometry">
            <mxPoint x="1230" y="890" as="sourcePoint" />
            <mxPoint x="1390" y="890" as="targetPoint" />
            <mxPoint as="offset" />
          </mxGeometry>
        </mxCell>
        <mxCell id="YvYd5aY6UWbIAvhugofM-124" value="BaseDrawer" style="swimlane;fontStyle=1;align=center;verticalAlign=top;childLayout=stackLayout;horizontal=1;startSize=26;horizontalStack=0;resizeParent=1;resizeParentMax=0;resizeLast=0;collapsible=1;marginBottom=0;" parent="1" vertex="1">
          <mxGeometry x="1560" y="670" width="140" height="80" as="geometry" />
        </mxCell>
        <mxCell id="YvYd5aY6UWbIAvhugofM-126" value="" style="line;strokeWidth=1;fillColor=none;align=left;verticalAlign=middle;spacingTop=-1;spacingLeft=3;spacingRight=3;rotatable=0;labelPosition=right;points=[];portConstraint=eastwest;" parent="YvYd5aY6UWbIAvhugofM-124" vertex="1">
          <mxGeometry y="26" width="140" height="8" as="geometry" />
        </mxCell>
        <mxCell id="YvYd5aY6UWbIAvhugofM-127" value="+ drawLine()&#xa;+ clear()" style="text;strokeColor=none;fillColor=none;align=left;verticalAlign=top;spacingLeft=4;spacingRight=4;overflow=hidden;rotatable=0;points=[[0,0.5],[1,0.5]];portConstraint=eastwest;" parent="YvYd5aY6UWbIAvhugofM-124" vertex="1">
          <mxGeometry y="34" width="140" height="46" as="geometry" />
        </mxCell>
        <mxCell id="YvYd5aY6UWbIAvhugofM-128" value="QtDrawer" style="swimlane;fontStyle=1;align=center;verticalAlign=top;childLayout=stackLayout;horizontal=1;startSize=26;horizontalStack=0;resizeParent=1;resizeParentMax=0;resizeLast=0;collapsible=1;marginBottom=0;" parent="1" vertex="1">
          <mxGeometry x="1560" y="782" width="140" height="80" as="geometry" />
        </mxCell>
        <mxCell id="YvYd5aY6UWbIAvhugofM-129" value="" style="line;strokeWidth=1;fillColor=none;align=left;verticalAlign=middle;spacingTop=-1;spacingLeft=3;spacingRight=3;rotatable=0;labelPosition=right;points=[];portConstraint=eastwest;" parent="YvYd5aY6UWbIAvhugofM-128" vertex="1">
          <mxGeometry y="26" width="140" height="8" as="geometry" />
        </mxCell>
        <mxCell id="YvYd5aY6UWbIAvhugofM-130" value="+ drawLine()&#xa;+ clear()" style="text;strokeColor=none;fillColor=none;align=left;verticalAlign=top;spacingLeft=4;spacingRight=4;overflow=hidden;rotatable=0;points=[[0,0.5],[1,0.5]];portConstraint=eastwest;" parent="YvYd5aY6UWbIAvhugofM-128" vertex="1">
          <mxGeometry y="34" width="140" height="46" as="geometry" />
        </mxCell>
        <mxCell id="YvYd5aY6UWbIAvhugofM-131" value="" style="endArrow=block;endSize=16;endFill=0;html=1;exitX=0.5;exitY=0;exitDx=0;exitDy=0;" parent="1" source="YvYd5aY6UWbIAvhugofM-128" target="YvYd5aY6UWbIAvhugofM-127" edge="1">
          <mxGeometry y="-20" width="160" relative="1" as="geometry">
            <mxPoint x="1549.9999999999995" y="800" as="sourcePoint" />
            <mxPoint x="1549.9999999999995" y="750" as="targetPoint" />
            <mxPoint as="offset" />
          </mxGeometry>
        </mxCell>
        <mxCell id="YvYd5aY6UWbIAvhugofM-134" value="BaseManager" style="swimlane;fontStyle=3;align=center;verticalAlign=top;childLayout=stackLayout;horizontal=1;startSize=26;horizontalStack=0;resizeParent=1;resizeParentMax=0;resizeLast=0;collapsible=1;marginBottom=0;" parent="1" vertex="1">
          <mxGeometry x="1300.25" y="340" width="130" height="34" as="geometry" />
        </mxCell>
        <mxCell id="YvYd5aY6UWbIAvhugofM-136" value="" style="line;strokeWidth=1;fillColor=none;align=left;verticalAlign=middle;spacingTop=-1;spacingLeft=3;spacingRight=3;rotatable=0;labelPosition=right;points=[];portConstraint=eastwest;" parent="YvYd5aY6UWbIAvhugofM-134" vertex="1">
          <mxGeometry y="26" width="130" height="8" as="geometry" />
        </mxCell>
        <mxCell id="YvYd5aY6UWbIAvhugofM-139" value="DrawManager" style="swimlane;fontStyle=1;align=center;verticalAlign=top;childLayout=stackLayout;horizontal=1;startSize=26;horizontalStack=0;resizeParent=1;resizeParentMax=0;resizeLast=0;collapsible=1;marginBottom=0;" parent="1" vertex="1">
          <mxGeometry x="1070" y="480" width="140" height="70" as="geometry" />
        </mxCell>
        <mxCell id="YvYd5aY6UWbIAvhugofM-141" value="" style="line;strokeWidth=1;fillColor=none;align=left;verticalAlign=middle;spacingTop=-1;spacingLeft=3;spacingRight=3;rotatable=0;labelPosition=right;points=[];portConstraint=eastwest;" parent="YvYd5aY6UWbIAvhugofM-139" vertex="1">
          <mxGeometry y="26" width="140" height="8" as="geometry" />
        </mxCell>
        <mxCell id="YvYd5aY6UWbIAvhugofM-142" value="+ draw()&#xa;+ setCamera()" style="text;strokeColor=none;fillColor=none;align=left;verticalAlign=top;spacingLeft=4;spacingRight=4;overflow=hidden;rotatable=0;points=[[0,0.5],[1,0.5]];portConstraint=eastwest;" parent="YvYd5aY6UWbIAvhugofM-139" vertex="1">
          <mxGeometry y="34" width="140" height="36" as="geometry" />
        </mxCell>
        <mxCell id="YvYd5aY6UWbIAvhugofM-144" value="SceneManager" style="swimlane;fontStyle=1;align=center;verticalAlign=top;childLayout=stackLayout;horizontal=1;startSize=26;horizontalStack=0;resizeParent=1;resizeParentMax=0;resizeLast=0;collapsible=1;marginBottom=0;" parent="1" vertex="1">
          <mxGeometry x="1260" y="480" width="140" height="70" as="geometry" />
        </mxCell>
        <mxCell id="YvYd5aY6UWbIAvhugofM-145" value="" style="line;strokeWidth=1;fillColor=none;align=left;verticalAlign=middle;spacingTop=-1;spacingLeft=3;spacingRight=3;rotatable=0;labelPosition=right;points=[];portConstraint=eastwest;" parent="YvYd5aY6UWbIAvhugofM-144" vertex="1">
          <mxGeometry y="26" width="140" height="8" as="geometry" />
        </mxCell>
        <mxCell id="YvYd5aY6UWbIAvhugofM-146" value="+ getScene()&#xa;+ setScene()" style="text;strokeColor=none;fillColor=none;align=left;verticalAlign=top;spacingLeft=4;spacingRight=4;overflow=hidden;rotatable=0;points=[[0,0.5],[1,0.5]];portConstraint=eastwest;" parent="YvYd5aY6UWbIAvhugofM-144" vertex="1">
          <mxGeometry y="34" width="140" height="36" as="geometry" />
        </mxCell>
        <mxCell id="YvYd5aY6UWbIAvhugofM-147" value="Scene" style="swimlane;fontStyle=1;align=center;verticalAlign=top;childLayout=stackLayout;horizontal=1;startSize=26;horizontalStack=0;resizeParent=1;resizeParentMax=0;resizeLast=0;collapsible=1;marginBottom=0;" parent="1" vertex="1">
          <mxGeometry x="630" y="430" width="160" height="120" as="geometry" />
        </mxCell>
        <mxCell id="YvYd5aY6UWbIAvhugofM-148" value="" style="line;strokeWidth=1;fillColor=none;align=left;verticalAlign=middle;spacingTop=-1;spacingLeft=3;spacingRight=3;rotatable=0;labelPosition=right;points=[];portConstraint=eastwest;" parent="YvYd5aY6UWbIAvhugofM-147" vertex="1">
          <mxGeometry y="26" width="160" height="8" as="geometry" />
        </mxCell>
        <mxCell id="YvYd5aY6UWbIAvhugofM-149" value="+ getObjects()&#xa;+ addObject()&#xa;+ removeObject()&#xa;+ begin()&#xa;+ end()&#xa;" style="text;strokeColor=none;fillColor=none;align=left;verticalAlign=top;spacingLeft=4;spacingRight=4;overflow=hidden;rotatable=0;points=[[0,0.5],[1,0.5]];portConstraint=eastwest;" parent="YvYd5aY6UWbIAvhugofM-147" vertex="1">
          <mxGeometry y="34" width="160" height="86" as="geometry" />
        </mxCell>
        <mxCell id="YvYd5aY6UWbIAvhugofM-150" value="" style="endArrow=open;html=1;endSize=12;startArrow=diamondThin;startSize=14;startFill=1;edgeStyle=orthogonalEdgeStyle;align=left;verticalAlign=bottom;exitX=0.75;exitY=0;exitDx=0;exitDy=0;entryX=1;entryY=0.25;entryDx=0;entryDy=0;" parent="1" source="YvYd5aY6UWbIAvhugofM-147" target="YvYd5aY6UWbIAvhugofM-73" edge="1">
          <mxGeometry x="-0.9406" y="-37" relative="1" as="geometry">
            <mxPoint x="340" y="70" as="sourcePoint" />
            <mxPoint x="720" y="210" as="targetPoint" />
            <mxPoint as="offset" />
          </mxGeometry>
        </mxCell>
        <mxCell id="YvYd5aY6UWbIAvhugofM-167" value="BaseCommand" style="swimlane;fontStyle=1;align=center;verticalAlign=top;childLayout=stackLayout;horizontal=1;startSize=26;horizontalStack=0;resizeParent=1;resizeParentMax=0;resizeLast=0;collapsible=1;marginBottom=0;" parent="1" vertex="1">
          <mxGeometry x="1282.5" y="1031" width="160" height="90" as="geometry" />
        </mxCell>
        <mxCell id="YvYd5aY6UWbIAvhugofM-169" value="" style="line;strokeWidth=1;fillColor=none;align=left;verticalAlign=middle;spacingTop=-1;spacingLeft=3;spacingRight=3;rotatable=0;labelPosition=right;points=[];portConstraint=eastwest;" parent="YvYd5aY6UWbIAvhugofM-167" vertex="1">
          <mxGeometry y="26" width="160" height="8" as="geometry" />
        </mxCell>
        <mxCell id="YvYd5aY6UWbIAvhugofM-170" value="+ execute()&#xa;+ reverseable()" style="text;strokeColor=none;fillColor=none;align=left;verticalAlign=top;spacingLeft=4;spacingRight=4;overflow=hidden;rotatable=0;points=[[0,0.5],[1,0.5]];portConstraint=eastwest;" parent="YvYd5aY6UWbIAvhugofM-167" vertex="1">
          <mxGeometry y="34" width="160" height="56" as="geometry" />
        </mxCell>
        <mxCell id="YvYd5aY6UWbIAvhugofM-171" value="SceneCommand" style="swimlane;fontStyle=1;align=center;verticalAlign=top;childLayout=stackLayout;horizontal=1;startSize=26;horizontalStack=0;resizeParent=1;resizeParentMax=0;resizeLast=0;collapsible=1;marginBottom=0;" parent="1" vertex="1">
          <mxGeometry x="1057.5" y="1150" width="130" height="70" as="geometry" />
        </mxCell>
        <mxCell id="YvYd5aY6UWbIAvhugofM-172" value="" style="line;strokeWidth=1;fillColor=none;align=left;verticalAlign=middle;spacingTop=-1;spacingLeft=3;spacingRight=3;rotatable=0;labelPosition=right;points=[];portConstraint=eastwest;" parent="YvYd5aY6UWbIAvhugofM-171" vertex="1">
          <mxGeometry y="26" width="130" height="8" as="geometry" />
        </mxCell>
        <mxCell id="YvYd5aY6UWbIAvhugofM-173" value="+ execute()&#xa;+ reverseable()" style="text;strokeColor=none;fillColor=none;align=left;verticalAlign=top;spacingLeft=4;spacingRight=4;overflow=hidden;rotatable=0;points=[[0,0.5],[1,0.5]];portConstraint=eastwest;" parent="YvYd5aY6UWbIAvhugofM-171" vertex="1">
          <mxGeometry y="34" width="130" height="36" as="geometry" />
        </mxCell>
        <mxCell id="YvYd5aY6UWbIAvhugofM-175" value="CameraCommand" style="swimlane;fontStyle=1;align=center;verticalAlign=top;childLayout=stackLayout;horizontal=1;startSize=26;horizontalStack=0;resizeParent=1;resizeParentMax=0;resizeLast=0;collapsible=1;marginBottom=0;" parent="1" vertex="1">
          <mxGeometry x="1761" y="1151" width="160" height="80" as="geometry" />
        </mxCell>
        <mxCell id="YvYd5aY6UWbIAvhugofM-176" value="" style="line;strokeWidth=1;fillColor=none;align=left;verticalAlign=middle;spacingTop=-1;spacingLeft=3;spacingRight=3;rotatable=0;labelPosition=right;points=[];portConstraint=eastwest;" parent="YvYd5aY6UWbIAvhugofM-175" vertex="1">
          <mxGeometry y="26" width="160" height="8" as="geometry" />
        </mxCell>
        <mxCell id="YvYd5aY6UWbIAvhugofM-177" value="+ execute()&#xa;+ reverseable()" style="text;strokeColor=none;fillColor=none;align=left;verticalAlign=top;spacingLeft=4;spacingRight=4;overflow=hidden;rotatable=0;points=[[0,0.5],[1,0.5]];portConstraint=eastwest;" parent="YvYd5aY6UWbIAvhugofM-175" vertex="1">
          <mxGeometry y="34" width="160" height="46" as="geometry" />
        </mxCell>
        <mxCell id="YvYd5aY6UWbIAvhugofM-178" value="ModelCommand" style="swimlane;fontStyle=1;align=center;verticalAlign=top;childLayout=stackLayout;horizontal=1;startSize=26;horizontalStack=0;resizeParent=1;resizeParentMax=0;resizeLast=0;collapsible=1;marginBottom=0;" parent="1" vertex="1">
          <mxGeometry x="1282.5" y="1150" width="160" height="80" as="geometry" />
        </mxCell>
        <mxCell id="YvYd5aY6UWbIAvhugofM-179" value="" style="line;strokeWidth=1;fillColor=none;align=left;verticalAlign=middle;spacingTop=-1;spacingLeft=3;spacingRight=3;rotatable=0;labelPosition=right;points=[];portConstraint=eastwest;" parent="YvYd5aY6UWbIAvhugofM-178" vertex="1">
          <mxGeometry y="26" width="160" height="8" as="geometry" />
        </mxCell>
        <mxCell id="YvYd5aY6UWbIAvhugofM-180" value="+ execute()&#xa;+ reverseable()" style="text;strokeColor=none;fillColor=none;align=left;verticalAlign=top;spacingLeft=4;spacingRight=4;overflow=hidden;rotatable=0;points=[[0,0.5],[1,0.5]];portConstraint=eastwest;" parent="YvYd5aY6UWbIAvhugofM-178" vertex="1">
          <mxGeometry y="34" width="160" height="46" as="geometry" />
        </mxCell>
        <mxCell id="YvYd5aY6UWbIAvhugofM-181" value="AddModel&#xa;" style="swimlane;fontStyle=1;align=center;verticalAlign=top;childLayout=stackLayout;horizontal=1;startSize=26;horizontalStack=0;resizeParent=1;resizeParentMax=0;resizeLast=0;collapsible=1;marginBottom=0;" parent="1" vertex="1">
          <mxGeometry x="1288" y="1411" width="154.5" height="80" as="geometry" />
        </mxCell>
        <mxCell id="YvYd5aY6UWbIAvhugofM-182" value="" style="line;strokeWidth=1;fillColor=none;align=left;verticalAlign=middle;spacingTop=-1;spacingLeft=3;spacingRight=3;rotatable=0;labelPosition=right;points=[];portConstraint=eastwest;" parent="YvYd5aY6UWbIAvhugofM-181" vertex="1">
          <mxGeometry y="26" width="154.5" height="8" as="geometry" />
        </mxCell>
        <mxCell id="YvYd5aY6UWbIAvhugofM-183" value="+ execute()&#xa;+ reverseable()" style="text;strokeColor=none;fillColor=none;align=left;verticalAlign=top;spacingLeft=4;spacingRight=4;overflow=hidden;rotatable=0;points=[[0,0.5],[1,0.5]];portConstraint=eastwest;" parent="YvYd5aY6UWbIAvhugofM-181" vertex="1">
          <mxGeometry y="34" width="154.5" height="46" as="geometry" />
        </mxCell>
        <mxCell id="YvYd5aY6UWbIAvhugofM-184" value="RemoveModel" style="swimlane;fontStyle=1;align=center;verticalAlign=top;childLayout=stackLayout;horizontal=1;startSize=26;horizontalStack=0;resizeParent=1;resizeParentMax=0;resizeLast=0;collapsible=1;marginBottom=0;" parent="1" vertex="1">
          <mxGeometry x="1285.25" y="1300" width="154.5" height="70" as="geometry" />
        </mxCell>
        <mxCell id="YvYd5aY6UWbIAvhugofM-185" value="" style="line;strokeWidth=1;fillColor=none;align=left;verticalAlign=middle;spacingTop=-1;spacingLeft=3;spacingRight=3;rotatable=0;labelPosition=right;points=[];portConstraint=eastwest;" parent="YvYd5aY6UWbIAvhugofM-184" vertex="1">
          <mxGeometry y="26" width="154.5" height="8" as="geometry" />
        </mxCell>
        <mxCell id="YvYd5aY6UWbIAvhugofM-186" value="+ execute()&#xa;+ reverseable()" style="text;strokeColor=none;fillColor=none;align=left;verticalAlign=top;spacingLeft=4;spacingRight=4;overflow=hidden;rotatable=0;points=[[0,0.5],[1,0.5]];portConstraint=eastwest;" parent="YvYd5aY6UWbIAvhugofM-184" vertex="1">
          <mxGeometry y="34" width="154.5" height="36" as="geometry" />
        </mxCell>
        <mxCell id="YvYd5aY6UWbIAvhugofM-187" value="RotateModel" style="swimlane;fontStyle=1;align=center;verticalAlign=top;childLayout=stackLayout;horizontal=1;startSize=26;horizontalStack=0;resizeParent=1;resizeParentMax=0;resizeLast=0;collapsible=1;marginBottom=0;" parent="1" vertex="1">
          <mxGeometry x="1293.5" y="1531" width="150" height="70" as="geometry" />
        </mxCell>
        <mxCell id="YvYd5aY6UWbIAvhugofM-188" value="" style="line;strokeWidth=1;fillColor=none;align=left;verticalAlign=middle;spacingTop=-1;spacingLeft=3;spacingRight=3;rotatable=0;labelPosition=right;points=[];portConstraint=eastwest;" parent="YvYd5aY6UWbIAvhugofM-187" vertex="1">
          <mxGeometry y="26" width="150" height="8" as="geometry" />
        </mxCell>
        <mxCell id="YvYd5aY6UWbIAvhugofM-189" value="+ execute()&#xa;+ reverseable()" style="text;strokeColor=none;fillColor=none;align=left;verticalAlign=top;spacingLeft=4;spacingRight=4;overflow=hidden;rotatable=0;points=[[0,0.5],[1,0.5]];portConstraint=eastwest;" parent="YvYd5aY6UWbIAvhugofM-187" vertex="1">
          <mxGeometry y="34" width="150" height="36" as="geometry" />
        </mxCell>
        <mxCell id="YvYd5aY6UWbIAvhugofM-190" value="ScaleModel" style="swimlane;fontStyle=1;align=center;verticalAlign=top;childLayout=stackLayout;horizontal=1;startSize=26;horizontalStack=0;resizeParent=1;resizeParentMax=0;resizeLast=0;collapsible=1;marginBottom=0;" parent="1" vertex="1">
          <mxGeometry x="1292.5" y="1638" width="150" height="70" as="geometry" />
        </mxCell>
        <mxCell id="YvYd5aY6UWbIAvhugofM-191" value="" style="line;strokeWidth=1;fillColor=none;align=left;verticalAlign=middle;spacingTop=-1;spacingLeft=3;spacingRight=3;rotatable=0;labelPosition=right;points=[];portConstraint=eastwest;" parent="YvYd5aY6UWbIAvhugofM-190" vertex="1">
          <mxGeometry y="26" width="150" height="8" as="geometry" />
        </mxCell>
        <mxCell id="YvYd5aY6UWbIAvhugofM-192" value="+ execute()&#xa;+ reverseable()" style="text;strokeColor=none;fillColor=none;align=left;verticalAlign=top;spacingLeft=4;spacingRight=4;overflow=hidden;rotatable=0;points=[[0,0.5],[1,0.5]];portConstraint=eastwest;" parent="YvYd5aY6UWbIAvhugofM-190" vertex="1">
          <mxGeometry y="34" width="150" height="36" as="geometry" />
        </mxCell>
        <mxCell id="YvYd5aY6UWbIAvhugofM-193" value="MoveModel" style="swimlane;fontStyle=1;align=center;verticalAlign=top;childLayout=stackLayout;horizontal=1;startSize=26;horizontalStack=0;resizeParent=1;resizeParentMax=0;resizeLast=0;collapsible=1;marginBottom=0;" parent="1" vertex="1">
          <mxGeometry x="1288" y="1748" width="160" height="70" as="geometry" />
        </mxCell>
        <mxCell id="YvYd5aY6UWbIAvhugofM-194" value="" style="line;strokeWidth=1;fillColor=none;align=left;verticalAlign=middle;spacingTop=-1;spacingLeft=3;spacingRight=3;rotatable=0;labelPosition=right;points=[];portConstraint=eastwest;" parent="YvYd5aY6UWbIAvhugofM-193" vertex="1">
          <mxGeometry y="26" width="160" height="8" as="geometry" />
        </mxCell>
        <mxCell id="YvYd5aY6UWbIAvhugofM-195" value="+ execute()&#xa;+ reverseable()" style="text;strokeColor=none;fillColor=none;align=left;verticalAlign=top;spacingLeft=4;spacingRight=4;overflow=hidden;rotatable=0;points=[[0,0.5],[1,0.5]];portConstraint=eastwest;" parent="YvYd5aY6UWbIAvhugofM-193" vertex="1">
          <mxGeometry y="34" width="160" height="36" as="geometry" />
        </mxCell>
        <mxCell id="q7ZRytTbzjanhuIPvE7e-50" style="edgeStyle=orthogonalEdgeStyle;rounded=1;orthogonalLoop=1;jettySize=auto;html=1;exitX=0.5;exitY=0;exitDx=0;exitDy=0;endArrow=block;endFill=0;endSize=16;" parent="1" source="YvYd5aY6UWbIAvhugofM-196" target="YvYd5aY6UWbIAvhugofM-173" edge="1">
          <mxGeometry relative="1" as="geometry">
            <Array as="points">
              <mxPoint x="1125" y="1361" />
              <mxPoint x="980" y="1361" />
              <mxPoint x="980" y="1261" />
              <mxPoint x="1123" y="1261" />
            </Array>
          </mxGeometry>
        </mxCell>
        <mxCell id="YvYd5aY6UWbIAvhugofM-196" value="DrawScene" style="swimlane;fontStyle=1;align=center;verticalAlign=top;childLayout=stackLayout;horizontal=1;startSize=26;horizontalStack=0;resizeParent=1;resizeParentMax=0;resizeLast=0;collapsible=1;marginBottom=0;" parent="1" vertex="1">
          <mxGeometry x="1057.5" y="1371" width="135" height="80" as="geometry" />
        </mxCell>
        <mxCell id="YvYd5aY6UWbIAvhugofM-197" value="" style="line;strokeWidth=1;fillColor=none;align=left;verticalAlign=middle;spacingTop=-1;spacingLeft=3;spacingRight=3;rotatable=0;labelPosition=right;points=[];portConstraint=eastwest;" parent="YvYd5aY6UWbIAvhugofM-196" vertex="1">
          <mxGeometry y="26" width="135" height="8" as="geometry" />
        </mxCell>
        <mxCell id="YvYd5aY6UWbIAvhugofM-198" value="+ execute()&#xa;+ reverseable()" style="text;strokeColor=none;fillColor=none;align=left;verticalAlign=top;spacingLeft=4;spacingRight=4;overflow=hidden;rotatable=0;points=[[0,0.5],[1,0.5]];portConstraint=eastwest;" parent="YvYd5aY6UWbIAvhugofM-196" vertex="1">
          <mxGeometry y="34" width="135" height="46" as="geometry" />
        </mxCell>
        <mxCell id="YvYd5aY6UWbIAvhugofM-199" value="LoadScene" style="swimlane;fontStyle=1;align=center;verticalAlign=top;childLayout=stackLayout;horizontal=1;startSize=26;horizontalStack=0;resizeParent=1;resizeParentMax=0;resizeLast=0;collapsible=1;marginBottom=0;" parent="1" vertex="1">
          <mxGeometry x="1055" y="1270" width="135" height="70" as="geometry" />
        </mxCell>
        <mxCell id="YvYd5aY6UWbIAvhugofM-200" value="" style="line;strokeWidth=1;fillColor=none;align=left;verticalAlign=middle;spacingTop=-1;spacingLeft=3;spacingRight=3;rotatable=0;labelPosition=right;points=[];portConstraint=eastwest;" parent="YvYd5aY6UWbIAvhugofM-199" vertex="1">
          <mxGeometry y="26" width="135" height="8" as="geometry" />
        </mxCell>
        <mxCell id="YvYd5aY6UWbIAvhugofM-201" value="+ execute()&#xa;+ reverseable()" style="text;strokeColor=none;fillColor=none;align=left;verticalAlign=top;spacingLeft=4;spacingRight=4;overflow=hidden;rotatable=0;points=[[0,0.5],[1,0.5]];portConstraint=eastwest;" parent="YvYd5aY6UWbIAvhugofM-199" vertex="1">
          <mxGeometry y="34" width="135" height="36" as="geometry" />
        </mxCell>
        <mxCell id="YvYd5aY6UWbIAvhugofM-202" value="DeleteCamera&#xa;" style="swimlane;fontStyle=1;align=center;verticalAlign=top;childLayout=stackLayout;horizontal=1;startSize=26;horizontalStack=0;resizeParent=1;resizeParentMax=0;resizeLast=0;collapsible=1;marginBottom=0;" parent="1" vertex="1">
          <mxGeometry x="1700" y="1265" width="111" height="70" as="geometry" />
        </mxCell>
        <mxCell id="YvYd5aY6UWbIAvhugofM-203" value="" style="line;strokeWidth=1;fillColor=none;align=left;verticalAlign=middle;spacingTop=-1;spacingLeft=3;spacingRight=3;rotatable=0;labelPosition=right;points=[];portConstraint=eastwest;" parent="YvYd5aY6UWbIAvhugofM-202" vertex="1">
          <mxGeometry y="26" width="111" height="8" as="geometry" />
        </mxCell>
        <mxCell id="YvYd5aY6UWbIAvhugofM-204" value="+ execute()&#xa;+ reverseable()" style="text;strokeColor=none;fillColor=none;align=left;verticalAlign=top;spacingLeft=4;spacingRight=4;overflow=hidden;rotatable=0;points=[[0,0.5],[1,0.5]];portConstraint=eastwest;" parent="YvYd5aY6UWbIAvhugofM-202" vertex="1">
          <mxGeometry y="34" width="111" height="36" as="geometry" />
        </mxCell>
        <mxCell id="YvYd5aY6UWbIAvhugofM-205" value="AddCamera" style="swimlane;fontStyle=1;align=center;verticalAlign=top;childLayout=stackLayout;horizontal=1;startSize=26;horizontalStack=0;resizeParent=1;resizeParentMax=0;resizeLast=0;collapsible=1;marginBottom=0;" parent="1" vertex="1">
          <mxGeometry x="1961" y="1265" width="111" height="90" as="geometry" />
        </mxCell>
        <mxCell id="YvYd5aY6UWbIAvhugofM-206" value="" style="line;strokeWidth=1;fillColor=none;align=left;verticalAlign=middle;spacingTop=-1;spacingLeft=3;spacingRight=3;rotatable=0;labelPosition=right;points=[];portConstraint=eastwest;" parent="YvYd5aY6UWbIAvhugofM-205" vertex="1">
          <mxGeometry y="26" width="111" height="8" as="geometry" />
        </mxCell>
        <mxCell id="YvYd5aY6UWbIAvhugofM-207" value="+ execute()&#xa;+ reverseable()" style="text;strokeColor=none;fillColor=none;align=left;verticalAlign=top;spacingLeft=4;spacingRight=4;overflow=hidden;rotatable=0;points=[[0,0.5],[1,0.5]];portConstraint=eastwest;" parent="YvYd5aY6UWbIAvhugofM-205" vertex="1">
          <mxGeometry y="34" width="111" height="56" as="geometry" />
        </mxCell>
        <mxCell id="YvYd5aY6UWbIAvhugofM-212" value="LoadModel" style="swimlane;fontStyle=1;align=center;verticalAlign=top;childLayout=stackLayout;horizontal=1;startSize=26;horizontalStack=0;resizeParent=1;resizeParentMax=0;resizeLast=0;collapsible=1;marginBottom=0;" parent="1" vertex="1">
          <mxGeometry x="1293.5" y="1863" width="160" height="70" as="geometry" />
        </mxCell>
        <mxCell id="YvYd5aY6UWbIAvhugofM-213" value="" style="line;strokeWidth=1;fillColor=none;align=left;verticalAlign=middle;spacingTop=-1;spacingLeft=3;spacingRight=3;rotatable=0;labelPosition=right;points=[];portConstraint=eastwest;" parent="YvYd5aY6UWbIAvhugofM-212" vertex="1">
          <mxGeometry y="26" width="160" height="8" as="geometry" />
        </mxCell>
        <mxCell id="YvYd5aY6UWbIAvhugofM-214" value="+ execute()&#xa;+ reverseable()" style="text;strokeColor=none;fillColor=none;align=left;verticalAlign=top;spacingLeft=4;spacingRight=4;overflow=hidden;rotatable=0;points=[[0,0.5],[1,0.5]];portConstraint=eastwest;" parent="YvYd5aY6UWbIAvhugofM-212" vertex="1">
          <mxGeometry y="34" width="160" height="36" as="geometry" />
        </mxCell>
        <mxCell id="YvYd5aY6UWbIAvhugofM-216" value="" style="endArrow=block;endSize=16;endFill=0;html=1;exitX=0.5;exitY=0;exitDx=0;exitDy=0;" parent="1" source="YvYd5aY6UWbIAvhugofM-175" target="YvYd5aY6UWbIAvhugofM-170" edge="1">
          <mxGeometry y="-20" width="160" relative="1" as="geometry">
            <mxPoint x="1441.8099999999995" y="1191" as="sourcePoint" />
            <mxPoint x="1441.8099999999995" y="1141" as="targetPoint" />
            <mxPoint as="offset" />
            <Array as="points">
              <mxPoint x="1841" y="1141" />
              <mxPoint x="1362.5" y="1141" />
            </Array>
          </mxGeometry>
        </mxCell>
        <mxCell id="YvYd5aY6UWbIAvhugofM-217" value="" style="endArrow=block;endSize=16;endFill=0;html=1;exitX=0.5;exitY=0;exitDx=0;exitDy=0;" parent="1" source="YvYd5aY6UWbIAvhugofM-171" target="YvYd5aY6UWbIAvhugofM-170" edge="1">
          <mxGeometry y="-20" width="160" relative="1" as="geometry">
            <mxPoint x="1212.4999999999995" y="1011" as="sourcePoint" />
            <mxPoint x="1212.4999999999995" y="961" as="targetPoint" />
            <mxPoint as="offset" />
            <Array as="points">
              <mxPoint x="1122.5" y="1141" />
              <mxPoint x="1362.5" y="1141" />
            </Array>
          </mxGeometry>
        </mxCell>
        <mxCell id="YvYd5aY6UWbIAvhugofM-219" value="" style="endArrow=block;endSize=16;endFill=0;html=1;" parent="1" source="YvYd5aY6UWbIAvhugofM-178" target="YvYd5aY6UWbIAvhugofM-170" edge="1">
          <mxGeometry y="-20" width="160" relative="1" as="geometry">
            <mxPoint x="1362.1599999999999" y="1236" as="sourcePoint" />
            <mxPoint x="1362.1599999999999" y="1186" as="targetPoint" />
            <mxPoint as="offset" />
          </mxGeometry>
        </mxCell>
        <mxCell id="YvYd5aY6UWbIAvhugofM-220" value="" style="endArrow=block;endSize=16;endFill=0;html=1;exitX=0.5;exitY=0;exitDx=0;exitDy=0;" parent="1" source="YvYd5aY6UWbIAvhugofM-184" target="YvYd5aY6UWbIAvhugofM-180" edge="1">
          <mxGeometry y="-20" width="160" relative="1" as="geometry">
            <mxPoint x="1412.4999999999995" y="1426" as="sourcePoint" />
            <mxPoint x="1412.4999999999995" y="1376" as="targetPoint" />
            <mxPoint as="offset" />
          </mxGeometry>
        </mxCell>
        <mxCell id="YvYd5aY6UWbIAvhugofM-221" value="" style="endArrow=block;endSize=16;endFill=0;html=1;" parent="1" source="YvYd5aY6UWbIAvhugofM-181" target="YvYd5aY6UWbIAvhugofM-180" edge="1">
          <mxGeometry y="-20" width="160" relative="1" as="geometry">
            <mxPoint x="1422.4999999999995" y="1436" as="sourcePoint" />
            <mxPoint x="1366.5" y="1251" as="targetPoint" />
            <mxPoint as="offset" />
            <Array as="points">
              <mxPoint x="1367" y="1401" />
              <mxPoint x="1362.5" y="1401" />
              <mxPoint x="1252.5" y="1401" />
              <mxPoint x="1252.5" y="1291" />
              <mxPoint x="1363.5" y="1291" />
            </Array>
          </mxGeometry>
        </mxCell>
        <mxCell id="YvYd5aY6UWbIAvhugofM-222" value="" style="endArrow=block;endSize=16;endFill=0;html=1;exitX=0.5;exitY=0;exitDx=0;exitDy=0;" parent="1" source="YvYd5aY6UWbIAvhugofM-187" target="YvYd5aY6UWbIAvhugofM-180" edge="1">
          <mxGeometry y="-20" width="160" relative="1" as="geometry">
            <mxPoint x="1432.4999999999995" y="1446" as="sourcePoint" />
            <mxPoint x="1517.5" y="1541" as="targetPoint" />
            <mxPoint as="offset" />
            <Array as="points">
              <mxPoint x="1367.5" y="1521" />
              <mxPoint x="1252.5" y="1521" />
              <mxPoint x="1252.5" y="1401" />
              <mxPoint x="1252.5" y="1291" />
              <mxPoint x="1362.5" y="1291" />
            </Array>
          </mxGeometry>
        </mxCell>
        <mxCell id="YvYd5aY6UWbIAvhugofM-223" value="" style="endArrow=block;endSize=16;endFill=0;html=1;" parent="1" source="YvYd5aY6UWbIAvhugofM-190" target="YvYd5aY6UWbIAvhugofM-180" edge="1">
          <mxGeometry y="-20" width="160" relative="1" as="geometry">
            <mxPoint x="1442.4999999999995" y="1456" as="sourcePoint" />
            <mxPoint x="1442.4999999999995" y="1406" as="targetPoint" />
            <mxPoint as="offset" />
            <Array as="points">
              <mxPoint x="1367.5" y="1621" />
              <mxPoint x="1252.5" y="1621" />
              <mxPoint x="1252.5" y="1511" />
              <mxPoint x="1252.5" y="1291" />
              <mxPoint x="1362.5" y="1291" />
            </Array>
          </mxGeometry>
        </mxCell>
        <mxCell id="YvYd5aY6UWbIAvhugofM-224" value="" style="endArrow=block;endSize=16;endFill=0;html=1;exitX=0.414;exitY=0.014;exitDx=0;exitDy=0;exitPerimeter=0;" parent="1" source="YvYd5aY6UWbIAvhugofM-193" target="YvYd5aY6UWbIAvhugofM-180" edge="1">
          <mxGeometry y="-20" width="160" relative="1" as="geometry">
            <mxPoint x="1452.4999999999995" y="1466" as="sourcePoint" />
            <mxPoint x="1452.4999999999995" y="1416" as="targetPoint" />
            <mxPoint as="offset" />
            <Array as="points">
              <mxPoint x="1352.5" y="1731" />
              <mxPoint x="1252.5" y="1731" />
              <mxPoint x="1252.5" y="1621" />
              <mxPoint x="1252.5" y="1291" />
              <mxPoint x="1361.5" y="1291" />
            </Array>
          </mxGeometry>
        </mxCell>
        <mxCell id="YvYd5aY6UWbIAvhugofM-225" value="" style="endArrow=block;endSize=16;endFill=0;html=1;exitX=0.5;exitY=0;exitDx=0;exitDy=0;" parent="1" source="YvYd5aY6UWbIAvhugofM-202" target="YvYd5aY6UWbIAvhugofM-177" edge="1">
          <mxGeometry y="-20" width="160" relative="1" as="geometry">
            <mxPoint x="1460.9999999999995" y="1221" as="sourcePoint" />
            <mxPoint x="1460.9999999999995" y="1171" as="targetPoint" />
            <mxPoint as="offset" />
            <Array as="points">
              <mxPoint x="1760" y="1250" />
              <mxPoint x="1800" y="1250" />
              <mxPoint x="1841" y="1250" />
            </Array>
          </mxGeometry>
        </mxCell>
        <mxCell id="YvYd5aY6UWbIAvhugofM-226" value="" style="endArrow=block;endSize=16;endFill=0;html=1;exitX=0.5;exitY=0;exitDx=0;exitDy=0;" parent="1" source="YvYd5aY6UWbIAvhugofM-205" target="YvYd5aY6UWbIAvhugofM-177" edge="1">
          <mxGeometry y="-20" width="160" relative="1" as="geometry">
            <mxPoint x="1470.9999999999995" y="1231" as="sourcePoint" />
            <mxPoint x="1791" y="1168" as="targetPoint" />
            <mxPoint as="offset" />
            <Array as="points">
              <mxPoint x="2017" y="1250" />
              <mxPoint x="1891" y="1250" />
              <mxPoint x="1841" y="1250" />
            </Array>
          </mxGeometry>
        </mxCell>
        <mxCell id="YvYd5aY6UWbIAvhugofM-227" value="" style="endArrow=block;endSize=16;endFill=0;html=1;" parent="1" source="YvYd5aY6UWbIAvhugofM-212" target="YvYd5aY6UWbIAvhugofM-178" edge="1">
          <mxGeometry y="-20" width="160" relative="1" as="geometry">
            <mxPoint x="1332.4999999999995" y="1251" as="sourcePoint" />
            <mxPoint x="2032.5" y="1221" as="targetPoint" />
            <mxPoint as="offset" />
            <Array as="points">
              <mxPoint x="1374" y="1841" />
              <mxPoint x="1250" y="1841" />
              <mxPoint x="1250" y="1291" />
              <mxPoint x="1363" y="1291" />
            </Array>
          </mxGeometry>
        </mxCell>
        <mxCell id="YvYd5aY6UWbIAvhugofM-229" value="" style="endArrow=block;endSize=16;endFill=0;html=1;exitX=0.5;exitY=0;exitDx=0;exitDy=0;" parent="1" source="YvYd5aY6UWbIAvhugofM-199" target="YvYd5aY6UWbIAvhugofM-173" edge="1">
          <mxGeometry y="-20" width="160" relative="1" as="geometry">
            <mxPoint x="1582.4999999999995" y="1402" as="sourcePoint" />
            <mxPoint x="1272.5" y="1345" as="targetPoint" />
            <mxPoint as="offset" />
            <Array as="points">
              <mxPoint x="1122.5" y="1241" />
            </Array>
          </mxGeometry>
        </mxCell>
        <mxCell id="Ah3sRNA3tBeZJ3L1r1vs-1" value="BaseModel" style="swimlane;fontStyle=1;align=center;verticalAlign=top;childLayout=stackLayout;horizontal=1;startSize=26;horizontalStack=0;resizeParent=1;resizeParentMax=0;resizeLast=0;collapsible=1;marginBottom=0;" parent="1" vertex="1">
          <mxGeometry x="20" y="380" width="160" height="140" as="geometry" />
        </mxCell>
        <mxCell id="Ah3sRNA3tBeZJ3L1r1vs-2" value="" style="line;strokeWidth=1;fillColor=none;align=left;verticalAlign=middle;spacingTop=-1;spacingLeft=3;spacingRight=3;rotatable=0;labelPosition=right;points=[];portConstraint=eastwest;" parent="Ah3sRNA3tBeZJ3L1r1vs-1" vertex="1">
          <mxGeometry y="26" width="160" height="8" as="geometry" />
        </mxCell>
        <mxCell id="Ah3sRNA3tBeZJ3L1r1vs-3" value="+ transform()&#xa;+ add()&#xa;+ clone()&#xa;+ remove()&#xa;+ is_composite()&#xa;+ is_visible()" style="text;strokeColor=none;fillColor=none;align=left;verticalAlign=top;spacingLeft=4;spacingRight=4;overflow=hidden;rotatable=0;points=[[0,0.5],[1,0.5]];portConstraint=eastwest;" parent="Ah3sRNA3tBeZJ3L1r1vs-1" vertex="1">
          <mxGeometry y="34" width="160" height="106" as="geometry" />
        </mxCell>
        <mxCell id="Ah3sRNA3tBeZJ3L1r1vs-4" value="" style="endArrow=block;endSize=16;endFill=0;html=1;exitX=0.5;exitY=0;exitDx=0;exitDy=0;" parent="1" source="YvYd5aY6UWbIAvhugofM-79" target="Ah3sRNA3tBeZJ3L1r1vs-3" edge="1">
          <mxGeometry width="160" relative="1" as="geometry">
            <mxPoint x="10" y="550" as="sourcePoint" />
            <mxPoint x="170" y="550" as="targetPoint" />
          </mxGeometry>
        </mxCell>
        <mxCell id="Ah3sRNA3tBeZJ3L1r1vs-5" value="" style="endArrow=block;endSize=16;endFill=0;html=1;exitX=0.5;exitY=0;exitDx=0;exitDy=0;" parent="1" source="Ah3sRNA3tBeZJ3L1r1vs-1" target="YvYd5aY6UWbIAvhugofM-84" edge="1">
          <mxGeometry width="160" relative="1" as="geometry">
            <mxPoint x="110" y="490" as="sourcePoint" />
            <mxPoint x="110" y="450" as="targetPoint" />
          </mxGeometry>
        </mxCell>
        <mxCell id="Ah3sRNA3tBeZJ3L1r1vs-19" value="CompositeAdapter" style="swimlane;fontStyle=1;align=center;verticalAlign=top;childLayout=stackLayout;horizontal=1;startSize=26;horizontalStack=0;resizeParent=1;resizeParentMax=0;resizeLast=0;collapsible=1;marginBottom=0;" parent="1" vertex="1">
          <mxGeometry x="-620" y="300" width="140" height="60" as="geometry" />
        </mxCell>
        <mxCell id="Ah3sRNA3tBeZJ3L1r1vs-20" value="" style="line;strokeWidth=1;fillColor=none;align=left;verticalAlign=middle;spacingTop=-1;spacingLeft=3;spacingRight=3;rotatable=0;labelPosition=right;points=[];portConstraint=eastwest;" parent="Ah3sRNA3tBeZJ3L1r1vs-19" vertex="1">
          <mxGeometry y="26" width="140" height="8" as="geometry" />
        </mxCell>
        <mxCell id="Ah3sRNA3tBeZJ3L1r1vs-21" value="+ request()" style="text;strokeColor=none;fillColor=none;align=left;verticalAlign=top;spacingLeft=4;spacingRight=4;overflow=hidden;rotatable=0;points=[[0,0.5],[1,0.5]];portConstraint=eastwest;" parent="Ah3sRNA3tBeZJ3L1r1vs-19" vertex="1">
          <mxGeometry y="34" width="140" height="26" as="geometry" />
        </mxCell>
        <mxCell id="Ah3sRNA3tBeZJ3L1r1vs-22" value="CameraAdapter" style="swimlane;fontStyle=1;align=center;verticalAlign=top;childLayout=stackLayout;horizontal=1;startSize=26;horizontalStack=0;resizeParent=1;resizeParentMax=0;resizeLast=0;collapsible=1;marginBottom=0;" parent="1" vertex="1">
          <mxGeometry x="-860" y="300" width="140" height="60" as="geometry" />
        </mxCell>
        <mxCell id="Ah3sRNA3tBeZJ3L1r1vs-23" value="" style="line;strokeWidth=1;fillColor=none;align=left;verticalAlign=middle;spacingTop=-1;spacingLeft=3;spacingRight=3;rotatable=0;labelPosition=right;points=[];portConstraint=eastwest;" parent="Ah3sRNA3tBeZJ3L1r1vs-22" vertex="1">
          <mxGeometry y="26" width="140" height="8" as="geometry" />
        </mxCell>
        <mxCell id="Ah3sRNA3tBeZJ3L1r1vs-24" value="+ request()" style="text;strokeColor=none;fillColor=none;align=left;verticalAlign=top;spacingLeft=4;spacingRight=4;overflow=hidden;rotatable=0;points=[[0,0.5],[1,0.5]];portConstraint=eastwest;fontStyle=2" parent="Ah3sRNA3tBeZJ3L1r1vs-22" vertex="1">
          <mxGeometry y="34" width="140" height="26" as="geometry" />
        </mxCell>
        <mxCell id="Ah3sRNA3tBeZJ3L1r1vs-50" value="ModelAdapter" style="swimlane;fontStyle=1;align=center;verticalAlign=top;childLayout=stackLayout;horizontal=1;startSize=26;horizontalStack=0;resizeParent=1;resizeParentMax=0;resizeLast=0;collapsible=1;marginBottom=0;" parent="1" vertex="1">
          <mxGeometry x="-1139" y="300" width="140" height="60" as="geometry" />
        </mxCell>
        <mxCell id="Ah3sRNA3tBeZJ3L1r1vs-51" value="" style="line;strokeWidth=1;fillColor=none;align=left;verticalAlign=middle;spacingTop=-1;spacingLeft=3;spacingRight=3;rotatable=0;labelPosition=right;points=[];portConstraint=eastwest;" parent="Ah3sRNA3tBeZJ3L1r1vs-50" vertex="1">
          <mxGeometry y="26" width="140" height="8" as="geometry" />
        </mxCell>
        <mxCell id="Ah3sRNA3tBeZJ3L1r1vs-52" value="+ request()" style="text;strokeColor=none;fillColor=none;align=left;verticalAlign=top;spacingLeft=4;spacingRight=4;overflow=hidden;rotatable=0;points=[[0,0.5],[1,0.5]];portConstraint=eastwest;" parent="Ah3sRNA3tBeZJ3L1r1vs-50" vertex="1">
          <mxGeometry y="34" width="140" height="26" as="geometry" />
        </mxCell>
        <mxCell id="wUwJqW-gIlSCidwOJM7W-3" value="" style="endArrow=diamondThin;endFill=0;endSize=24;html=1;exitX=0.5;exitY=0;exitDx=0;exitDy=0;entryX=0;entryY=0.5;entryDx=0;entryDy=0;" parent="1" source="YvYd5aY6UWbIAvhugofM-124" target="YvYd5aY6UWbIAvhugofM-142" edge="1">
          <mxGeometry width="160" relative="1" as="geometry">
            <mxPoint x="1150" y="200" as="sourcePoint" />
            <mxPoint x="950" y="270" as="targetPoint" />
            <Array as="points">
              <mxPoint x="1630" y="630" />
              <mxPoint x="960" y="630" />
              <mxPoint x="960" y="532" />
            </Array>
          </mxGeometry>
        </mxCell>
        <mxCell id="WmipSh_0xaWejdAVdMOU-1" value="" style="endArrow=open;endFill=1;endSize=12;html=1;" parent="1" source="YvYd5aY6UWbIAvhugofM-4" target="YvYd5aY6UWbIAvhugofM-167" edge="1">
          <mxGeometry width="160" relative="1" as="geometry">
            <mxPoint x="512.5" y="1201" as="sourcePoint" />
            <mxPoint x="672.5" y="1201" as="targetPoint" />
          </mxGeometry>
        </mxCell>
        <mxCell id="WmipSh_0xaWejdAVdMOU-5" value="" style="endArrow=diamondThin;endFill=0;endSize=24;html=1;exitX=1;exitY=0.5;exitDx=0;exitDy=0;entryX=0;entryY=0.5;entryDx=0;entryDy=0;" parent="1" source="YvYd5aY6UWbIAvhugofM-34" target="YvYd5aY6UWbIAvhugofM-15" edge="1">
          <mxGeometry width="160" relative="1" as="geometry">
            <mxPoint x="-300" y="1320" as="sourcePoint" />
            <mxPoint x="-140" y="1320" as="targetPoint" />
            <Array as="points">
              <mxPoint x="-850" y="1227" />
              <mxPoint x="-850" y="1490" />
              <mxPoint x="-510" y="1490" />
              <mxPoint x="-510" y="1414" />
            </Array>
          </mxGeometry>
        </mxCell>
        <mxCell id="WmipSh_0xaWejdAVdMOU-6" value="" style="endArrow=diamondThin;endFill=0;endSize=24;html=1;exitX=1.01;exitY=0.364;exitDx=0;exitDy=0;entryX=0;entryY=0.5;entryDx=0;entryDy=0;exitPerimeter=0;" parent="1" source="YvYd5aY6UWbIAvhugofM-44" target="YvYd5aY6UWbIAvhugofM-18" edge="1">
          <mxGeometry width="160" relative="1" as="geometry">
            <mxPoint x="-840" y="1184.0000000000005" as="sourcePoint" />
            <mxPoint x="-420" y="1424.0000000000005" as="targetPoint" />
            <Array as="points">
              <mxPoint x="-660" y="1217" />
              <mxPoint x="-660" y="1450" />
              <mxPoint x="-630" y="1450" />
              <mxPoint x="-280" y="1450" />
              <mxPoint x="-280" y="1414" />
            </Array>
          </mxGeometry>
        </mxCell>
        <mxCell id="WmipSh_0xaWejdAVdMOU-7" value="" style="endArrow=diamondThin;endFill=0;endSize=24;html=1;exitX=1;exitY=0.5;exitDx=0;exitDy=0;entryX=0;entryY=0.5;entryDx=0;entryDy=0;" parent="1" source="YvYd5aY6UWbIAvhugofM-53" target="YvYd5aY6UWbIAvhugofM-21" edge="1">
          <mxGeometry width="160" relative="1" as="geometry">
            <mxPoint x="-648.5" y="1173.6640000000002" as="sourcePoint" />
            <mxPoint x="-235" y="1424.0000000000005" as="targetPoint" />
            <Array as="points">
              <mxPoint x="-430" y="1217" />
              <mxPoint x="-430" y="1270" />
              <mxPoint x="-430" y="1480" />
              <mxPoint x="-280" y="1480" />
              <mxPoint x="-110" y="1480" />
              <mxPoint x="-110" y="1408" />
            </Array>
          </mxGeometry>
        </mxCell>
        <mxCell id="WmipSh_0xaWejdAVdMOU-10" value="DrawerSolution" style="swimlane;fontStyle=1;align=center;verticalAlign=top;childLayout=stackLayout;horizontal=1;startSize=26;horizontalStack=0;resizeParent=1;resizeParentMax=0;resizeLast=0;collapsible=1;marginBottom=0;" parent="1" vertex="1">
          <mxGeometry x="1060" y="697" width="160" height="60" as="geometry" />
        </mxCell>
        <mxCell id="WmipSh_0xaWejdAVdMOU-11" value="" style="line;strokeWidth=1;fillColor=none;align=left;verticalAlign=middle;spacingTop=-1;spacingLeft=3;spacingRight=3;rotatable=0;labelPosition=right;points=[];portConstraint=eastwest;" parent="WmipSh_0xaWejdAVdMOU-10" vertex="1">
          <mxGeometry y="26" width="160" height="8" as="geometry" />
        </mxCell>
        <mxCell id="WmipSh_0xaWejdAVdMOU-12" value="+execute()" style="text;strokeColor=none;fillColor=none;align=left;verticalAlign=top;spacingLeft=4;spacingRight=4;overflow=hidden;rotatable=0;points=[[0,0.5],[1,0.5]];portConstraint=eastwest;" parent="WmipSh_0xaWejdAVdMOU-10" vertex="1">
          <mxGeometry y="34" width="160" height="26" as="geometry" />
        </mxCell>
        <mxCell id="WmipSh_0xaWejdAVdMOU-13" value="" style="endArrow=open;endFill=1;endSize=12;html=1;" parent="1" target="YvYd5aY6UWbIAvhugofM-119" edge="1">
          <mxGeometry width="160" relative="1" as="geometry">
            <mxPoint x="1210" y="727" as="sourcePoint" />
            <mxPoint x="1610" y="960" as="targetPoint" />
          </mxGeometry>
        </mxCell>
        <mxCell id="2_hk0qNhQiP1PXoeNQw0-11" value="BaseDirector" style="swimlane;fontStyle=1;align=center;verticalAlign=top;childLayout=stackLayout;horizontal=1;startSize=26;horizontalStack=0;resizeParent=1;resizeParentMax=0;resizeLast=0;collapsible=1;marginBottom=0;" parent="1" vertex="1">
          <mxGeometry x="-220" y="1117" width="110" height="60" as="geometry" />
        </mxCell>
        <mxCell id="2_hk0qNhQiP1PXoeNQw0-12" value="" style="line;strokeWidth=1;fillColor=none;align=left;verticalAlign=middle;spacingTop=-1;spacingLeft=3;spacingRight=3;rotatable=0;labelPosition=right;points=[];portConstraint=eastwest;" parent="2_hk0qNhQiP1PXoeNQw0-11" vertex="1">
          <mxGeometry y="26" width="110" height="8" as="geometry" />
        </mxCell>
        <mxCell id="2_hk0qNhQiP1PXoeNQw0-13" value="+ create()" style="text;strokeColor=none;fillColor=none;align=left;verticalAlign=top;spacingLeft=4;spacingRight=4;overflow=hidden;rotatable=0;points=[[0,0.5],[1,0.5]];portConstraint=eastwest;" parent="2_hk0qNhQiP1PXoeNQw0-11" vertex="1">
          <mxGeometry y="34" width="110" height="26" as="geometry" />
        </mxCell>
        <mxCell id="2_hk0qNhQiP1PXoeNQw0-15" value="DirectorSolution" style="swimlane;fontStyle=1;align=center;verticalAlign=top;childLayout=stackLayout;horizontal=1;startSize=26;horizontalStack=0;resizeParent=1;resizeParentMax=0;resizeLast=0;collapsible=1;marginBottom=0;" parent="1" vertex="1">
          <mxGeometry x="-390" y="1117" width="120" height="60" as="geometry" />
        </mxCell>
        <mxCell id="2_hk0qNhQiP1PXoeNQw0-16" value="" style="line;strokeWidth=1;fillColor=none;align=left;verticalAlign=middle;spacingTop=-1;spacingLeft=3;spacingRight=3;rotatable=0;labelPosition=right;points=[];portConstraint=eastwest;" parent="2_hk0qNhQiP1PXoeNQw0-15" vertex="1">
          <mxGeometry y="26" width="120" height="8" as="geometry" />
        </mxCell>
        <mxCell id="2_hk0qNhQiP1PXoeNQw0-17" value="+ create()" style="text;strokeColor=none;fillColor=none;align=left;verticalAlign=top;spacingLeft=4;spacingRight=4;overflow=hidden;rotatable=0;points=[[0,0.5],[1,0.5]];portConstraint=eastwest;" parent="2_hk0qNhQiP1PXoeNQw0-15" vertex="1">
          <mxGeometry y="34" width="120" height="26" as="geometry" />
        </mxCell>
        <mxCell id="2_hk0qNhQiP1PXoeNQw0-19" value="" style="endArrow=open;endFill=1;endSize=12;html=1;exitX=1;exitY=0.5;exitDx=0;exitDy=0;entryX=0;entryY=0.5;entryDx=0;entryDy=0;" parent="1" source="2_hk0qNhQiP1PXoeNQw0-17" target="2_hk0qNhQiP1PXoeNQw0-13" edge="1">
          <mxGeometry width="160" relative="1" as="geometry">
            <mxPoint x="-360" y="1120" as="sourcePoint" />
            <mxPoint x="-200" y="1120" as="targetPoint" />
          </mxGeometry>
        </mxCell>
        <mxCell id="CbwfGJ5KhDUAyiqLK0re-5" value="BaseAdapter" style="swimlane;fontStyle=1;align=center;verticalAlign=top;childLayout=stackLayout;horizontal=1;startSize=26;horizontalStack=0;resizeParent=1;resizeParentMax=0;resizeLast=0;collapsible=1;marginBottom=0;" parent="1" vertex="1">
          <mxGeometry x="-700" y="180" width="140" height="60" as="geometry" />
        </mxCell>
        <mxCell id="CbwfGJ5KhDUAyiqLK0re-6" value="" style="line;strokeWidth=1;fillColor=none;align=left;verticalAlign=middle;spacingTop=-1;spacingLeft=3;spacingRight=3;rotatable=0;labelPosition=right;points=[];portConstraint=eastwest;" parent="CbwfGJ5KhDUAyiqLK0re-5" vertex="1">
          <mxGeometry y="26" width="140" height="8" as="geometry" />
        </mxCell>
        <mxCell id="CbwfGJ5KhDUAyiqLK0re-7" value="+ request()" style="text;strokeColor=none;fillColor=none;align=left;verticalAlign=top;spacingLeft=4;spacingRight=4;overflow=hidden;rotatable=0;points=[[0,0.5],[1,0.5]];portConstraint=eastwest;" parent="CbwfGJ5KhDUAyiqLK0re-5" vertex="1">
          <mxGeometry y="34" width="140" height="26" as="geometry" />
        </mxCell>
        <mxCell id="CbwfGJ5KhDUAyiqLK0re-8" value="" style="endArrow=block;endSize=16;endFill=0;html=1;exitX=0.5;exitY=0;exitDx=0;exitDy=0;" parent="1" source="Ah3sRNA3tBeZJ3L1r1vs-19" target="CbwfGJ5KhDUAyiqLK0re-7" edge="1">
          <mxGeometry x="-0.5591" y="-100" width="160" relative="1" as="geometry">
            <mxPoint x="-380" y="410" as="sourcePoint" />
            <mxPoint x="-220" y="410" as="targetPoint" />
            <Array as="points">
              <mxPoint x="-550" y="280" />
              <mxPoint x="-630" y="280" />
            </Array>
            <mxPoint as="offset" />
          </mxGeometry>
        </mxCell>
        <mxCell id="CbwfGJ5KhDUAyiqLK0re-10" value="" style="endArrow=block;endSize=16;endFill=0;html=1;" parent="1" source="Ah3sRNA3tBeZJ3L1r1vs-22" target="CbwfGJ5KhDUAyiqLK0re-7" edge="1">
          <mxGeometry x="0.2941" y="110" width="160" relative="1" as="geometry">
            <mxPoint x="-380" y="310" as="sourcePoint" />
            <mxPoint x="-630" y="240" as="targetPoint" />
            <Array as="points">
              <mxPoint x="-790" y="280" />
              <mxPoint x="-630" y="280" />
            </Array>
            <mxPoint as="offset" />
          </mxGeometry>
        </mxCell>
        <mxCell id="CbwfGJ5KhDUAyiqLK0re-12" value="" style="endArrow=block;endSize=16;endFill=0;html=1;exitX=0.5;exitY=0;exitDx=0;exitDy=0;" parent="1" source="Ah3sRNA3tBeZJ3L1r1vs-50" target="CbwfGJ5KhDUAyiqLK0re-7" edge="1">
          <mxGeometry x="0.2941" y="110" width="160" relative="1" as="geometry">
            <mxPoint x="-620" y="520" as="sourcePoint" />
            <mxPoint x="-620" y="250" as="targetPoint" />
            <Array as="points">
              <mxPoint x="-1070" y="280" />
              <mxPoint x="-790" y="280" />
              <mxPoint x="-630" y="280" />
            </Array>
            <mxPoint as="offset" />
          </mxGeometry>
        </mxCell>
        <mxCell id="CbwfGJ5KhDUAyiqLK0re-13" value="" style="endArrow=diamondThin;endFill=0;endSize=24;html=1;exitX=0;exitY=0.5;exitDx=0;exitDy=0;" parent="1" source="YvYd5aY6UWbIAvhugofM-93" target="Ah3sRNA3tBeZJ3L1r1vs-21" edge="1">
          <mxGeometry width="160" relative="1" as="geometry">
            <mxPoint x="410" y="590" as="sourcePoint" />
            <mxPoint x="-300" y="380" as="targetPoint" />
            <Array as="points">
              <mxPoint x="400" y="352" />
              <mxPoint x="400" y="560" />
              <mxPoint x="-430" y="560" />
              <mxPoint x="-430" y="344" />
            </Array>
          </mxGeometry>
        </mxCell>
        <mxCell id="CbwfGJ5KhDUAyiqLK0re-14" value="" style="endArrow=diamondThin;endFill=0;endSize=24;html=1;exitX=0;exitY=0.5;exitDx=0;exitDy=0;entryX=1;entryY=0.5;entryDx=0;entryDy=0;" parent="1" source="YvYd5aY6UWbIAvhugofM-90" target="Ah3sRNA3tBeZJ3L1r1vs-24" edge="1">
          <mxGeometry width="160" relative="1" as="geometry">
            <mxPoint x="435" y="362" as="sourcePoint" />
            <mxPoint x="-750" y="347" as="targetPoint" />
            <Array as="points">
              <mxPoint x="200" y="457" />
              <mxPoint x="200" y="590" />
              <mxPoint x="-520" y="590" />
              <mxPoint x="-680" y="590" />
              <mxPoint x="-680" y="347" />
            </Array>
          </mxGeometry>
        </mxCell>
        <mxCell id="CbwfGJ5KhDUAyiqLK0re-18" value="" style="endArrow=diamondThin;endFill=0;endSize=24;html=1;exitX=0.5;exitY=0;exitDx=0;exitDy=0;entryX=0;entryY=0.5;entryDx=0;entryDy=0;" parent="1" source="CbwfGJ5KhDUAyiqLK0re-5" target="YvYd5aY6UWbIAvhugofM-142" edge="1">
          <mxGeometry width="160" relative="1" as="geometry">
            <mxPoint x="170" y="260" as="sourcePoint" />
            <mxPoint x="1072" y="513" as="targetPoint" />
            <Array as="points">
              <mxPoint x="-630" y="20" />
              <mxPoint x="770" y="20" />
              <mxPoint x="915" y="20" />
              <mxPoint x="915" y="532" />
            </Array>
          </mxGeometry>
        </mxCell>
        <mxCell id="CbwfGJ5KhDUAyiqLK0re-19" value="" style="endArrow=open;endFill=1;endSize=12;html=1;exitX=1;exitY=0.5;exitDx=0;exitDy=0;" parent="1" source="YvYd5aY6UWbIAvhugofM-119" target="YvYd5aY6UWbIAvhugofM-127" edge="1">
          <mxGeometry width="160" relative="1" as="geometry">
            <mxPoint x="1690" y="736.9999999999998" as="sourcePoint" />
            <mxPoint x="1620" y="736.9999999999998" as="targetPoint" />
          </mxGeometry>
        </mxCell>
        <mxCell id="CbwfGJ5KhDUAyiqLK0re-26" value="" style="endArrow=diamondThin;endFill=0;endSize=24;html=1;exitX=0;exitY=0.5;exitDx=0;exitDy=0;entryX=1;entryY=0.5;entryDx=0;entryDy=0;" parent="1" source="Ah3sRNA3tBeZJ3L1r1vs-3" target="Ah3sRNA3tBeZJ3L1r1vs-52" edge="1">
          <mxGeometry width="160" relative="1" as="geometry">
            <mxPoint x="230" y="467" as="sourcePoint" />
            <mxPoint x="-710" y="357" as="targetPoint" />
            <Array as="points">
              <mxPoint x="-50" y="467" />
              <mxPoint x="-50" y="580" />
              <mxPoint x="-510" y="580" />
              <mxPoint x="-960" y="580" />
              <mxPoint x="-960" y="347" />
            </Array>
          </mxGeometry>
        </mxCell>
        <mxCell id="4kzs849el1HX90ymVqbN-1" value="MoveCamera&#xa;" style="swimlane;fontStyle=1;align=center;verticalAlign=top;childLayout=stackLayout;horizontal=1;startSize=26;horizontalStack=0;resizeParent=1;resizeParentMax=0;resizeLast=0;collapsible=1;marginBottom=0;" parent="1" vertex="1">
          <mxGeometry x="1827" y="1270" width="111" height="90" as="geometry" />
        </mxCell>
        <mxCell id="4kzs849el1HX90ymVqbN-2" value="" style="line;strokeWidth=1;fillColor=none;align=left;verticalAlign=middle;spacingTop=-1;spacingLeft=3;spacingRight=3;rotatable=0;labelPosition=right;points=[];portConstraint=eastwest;" parent="4kzs849el1HX90ymVqbN-1" vertex="1">
          <mxGeometry y="26" width="111" height="8" as="geometry" />
        </mxCell>
        <mxCell id="4kzs849el1HX90ymVqbN-3" value="+ execute()&#xa;+ reverseable()" style="text;strokeColor=none;fillColor=none;align=left;verticalAlign=top;spacingLeft=4;spacingRight=4;overflow=hidden;rotatable=0;points=[[0,0.5],[1,0.5]];portConstraint=eastwest;" parent="4kzs849el1HX90ymVqbN-1" vertex="1">
          <mxGeometry y="34" width="111" height="56" as="geometry" />
        </mxCell>
        <mxCell id="4kzs849el1HX90ymVqbN-4" value="" style="endArrow=block;endSize=16;endFill=0;html=1;exitX=0.5;exitY=0;exitDx=0;exitDy=0;" parent="1" source="4kzs849el1HX90ymVqbN-1" target="YvYd5aY6UWbIAvhugofM-177" edge="1">
          <mxGeometry y="-20" width="160" relative="1" as="geometry">
            <mxPoint x="2021.0010000000002" y="1171.0059999999999" as="sourcePoint" />
            <mxPoint x="1751" y="1211" as="targetPoint" />
            <mxPoint as="offset" />
            <Array as="points">
              <mxPoint x="1880" y="1250" />
              <mxPoint x="1841" y="1250" />
            </Array>
          </mxGeometry>
        </mxCell>
        <mxCell id="wHxYmSGv0tmpbDuo4JBs-10" value="" style="endArrow=block;endSize=16;endFill=0;html=1;exitX=0.5;exitY=0;exitDx=0;exitDy=0;" parent="1" source="YvYd5aY6UWbIAvhugofM-139" edge="1">
          <mxGeometry width="160" relative="1" as="geometry">
            <mxPoint x="1410" y="400" as="sourcePoint" />
            <mxPoint x="1360" y="370" as="targetPoint" />
            <Array as="points">
              <mxPoint x="1140" y="460" />
              <mxPoint x="1360" y="460" />
            </Array>
          </mxGeometry>
        </mxCell>
        <mxCell id="wHxYmSGv0tmpbDuo4JBs-11" value="" style="endArrow=block;endSize=16;endFill=0;html=1;exitX=0.5;exitY=0;exitDx=0;exitDy=0;" parent="1" source="YvYd5aY6UWbIAvhugofM-144" edge="1">
          <mxGeometry width="160" relative="1" as="geometry">
            <mxPoint x="1150" y="490" as="sourcePoint" />
            <mxPoint x="1360" y="370" as="targetPoint" />
            <Array as="points">
              <mxPoint x="1330" y="460" />
              <mxPoint x="1360" y="460" />
            </Array>
          </mxGeometry>
        </mxCell>
        <mxCell id="wHxYmSGv0tmpbDuo4JBs-14" value="" style="endArrow=diamondThin;endFill=1;endSize=24;html=1;entryX=0;entryY=0.5;entryDx=0;entryDy=0;exitX=0.5;exitY=0;exitDx=0;exitDy=0;" parent="1" source="YvYd5aY6UWbIAvhugofM-134" target="YvYd5aY6UWbIAvhugofM-167" edge="1">
          <mxGeometry width="160" relative="1" as="geometry">
            <mxPoint x="1367.500000000001" y="371.99999999999955" as="sourcePoint" />
            <mxPoint x="590" y="1560" as="targetPoint" />
            <Array as="points">
              <mxPoint x="1365" y="290" />
              <mxPoint x="1010" y="290" />
              <mxPoint x="1010" y="1076" />
            </Array>
          </mxGeometry>
        </mxCell>
        <mxCell id="wHxYmSGv0tmpbDuo4JBs-19" value="" style="endArrow=open;endSize=12;dashed=1;html=1;entryX=0.5;entryY=0;entryDx=0;entryDy=0;" parent="1" source="YvYd5aY6UWbIAvhugofM-142" target="WmipSh_0xaWejdAVdMOU-10" edge="1">
          <mxGeometry x="0.6674" y="-70" width="160" relative="1" as="geometry">
            <mxPoint x="1475" y="560" as="sourcePoint" />
            <mxPoint x="1140" y="770" as="targetPoint" />
            <Array as="points" />
            <mxPoint x="1" as="offset" />
          </mxGeometry>
        </mxCell>
        <mxCell id="U9Jb5Op2h5-U45iUo1xE-8" style="edgeStyle=orthogonalEdgeStyle;rounded=0;orthogonalLoop=1;jettySize=auto;html=1;exitX=0.5;exitY=0;exitDx=0;exitDy=0;entryX=0.5;entryY=0.992;entryDx=0;entryDy=0;entryPerimeter=0;endArrow=block;endFill=0;" parent="1" source="U9Jb5Op2h5-U45iUo1xE-5" target="Ah3sRNA3tBeZJ3L1r1vs-21" edge="1">
          <mxGeometry relative="1" as="geometry" />
        </mxCell>
        <mxCell id="U9Jb5Op2h5-U45iUo1xE-5" value="DrawCompositeAdapter" style="swimlane;fontStyle=1;align=center;verticalAlign=top;childLayout=stackLayout;horizontal=1;startSize=26;horizontalStack=0;resizeParent=1;resizeParentMax=0;resizeLast=0;collapsible=1;marginBottom=0;" parent="1" vertex="1">
          <mxGeometry x="-625" y="400" width="150" height="60" as="geometry" />
        </mxCell>
        <mxCell id="U9Jb5Op2h5-U45iUo1xE-6" value="" style="line;strokeWidth=1;fillColor=none;align=left;verticalAlign=middle;spacingTop=-1;spacingLeft=3;spacingRight=3;rotatable=0;labelPosition=right;points=[];portConstraint=eastwest;" parent="U9Jb5Op2h5-U45iUo1xE-5" vertex="1">
          <mxGeometry y="26" width="150" height="8" as="geometry" />
        </mxCell>
        <mxCell id="U9Jb5Op2h5-U45iUo1xE-7" value="+ request()" style="text;strokeColor=none;fillColor=none;align=left;verticalAlign=top;spacingLeft=4;spacingRight=4;overflow=hidden;rotatable=0;points=[[0,0.5],[1,0.5]];portConstraint=eastwest;" parent="U9Jb5Op2h5-U45iUo1xE-5" vertex="1">
          <mxGeometry y="34" width="150" height="26" as="geometry" />
        </mxCell>
        <mxCell id="U9Jb5Op2h5-U45iUo1xE-16" style="edgeStyle=orthogonalEdgeStyle;rounded=0;orthogonalLoop=1;jettySize=auto;html=1;exitX=0.5;exitY=0;exitDx=0;exitDy=0;entryX=0.5;entryY=1;entryDx=0;entryDy=0;entryPerimeter=0;endArrow=block;endFill=0;" parent="1" source="U9Jb5Op2h5-U45iUo1xE-13" target="Ah3sRNA3tBeZJ3L1r1vs-52" edge="1">
          <mxGeometry relative="1" as="geometry" />
        </mxCell>
        <mxCell id="U9Jb5Op2h5-U45iUo1xE-13" value="MoveModelAdapter" style="swimlane;fontStyle=1;align=center;verticalAlign=top;childLayout=stackLayout;horizontal=1;startSize=26;horizontalStack=0;resizeParent=1;resizeParentMax=0;resizeLast=0;collapsible=1;marginBottom=0;" parent="1" vertex="1">
          <mxGeometry x="-1259" y="400" width="140" height="60" as="geometry" />
        </mxCell>
        <mxCell id="U9Jb5Op2h5-U45iUo1xE-14" value="" style="line;strokeWidth=1;fillColor=none;align=left;verticalAlign=middle;spacingTop=-1;spacingLeft=3;spacingRight=3;rotatable=0;labelPosition=right;points=[];portConstraint=eastwest;" parent="U9Jb5Op2h5-U45iUo1xE-13" vertex="1">
          <mxGeometry y="26" width="140" height="8" as="geometry" />
        </mxCell>
        <mxCell id="U9Jb5Op2h5-U45iUo1xE-15" value="+ request()" style="text;strokeColor=none;fillColor=none;align=left;verticalAlign=top;spacingLeft=4;spacingRight=4;overflow=hidden;rotatable=0;points=[[0,0.5],[1,0.5]];portConstraint=eastwest;" parent="U9Jb5Op2h5-U45iUo1xE-13" vertex="1">
          <mxGeometry y="34" width="140" height="26" as="geometry" />
        </mxCell>
        <mxCell id="U9Jb5Op2h5-U45iUo1xE-18" value="LoadManager" style="swimlane;fontStyle=1;align=center;verticalAlign=top;childLayout=stackLayout;horizontal=1;startSize=26;horizontalStack=0;resizeParent=1;resizeParentMax=0;resizeLast=0;collapsible=1;marginBottom=0;" parent="1" vertex="1">
          <mxGeometry x="1440" y="480" width="140" height="70" as="geometry" />
        </mxCell>
        <mxCell id="U9Jb5Op2h5-U45iUo1xE-19" value="" style="line;strokeWidth=1;fillColor=none;align=left;verticalAlign=middle;spacingTop=-1;spacingLeft=3;spacingRight=3;rotatable=0;labelPosition=right;points=[];portConstraint=eastwest;" parent="U9Jb5Op2h5-U45iUo1xE-18" vertex="1">
          <mxGeometry y="26" width="140" height="8" as="geometry" />
        </mxCell>
        <mxCell id="U9Jb5Op2h5-U45iUo1xE-20" value="+ execute()" style="text;strokeColor=none;fillColor=none;align=left;verticalAlign=top;spacingLeft=4;spacingRight=4;overflow=hidden;rotatable=0;points=[[0,0.5],[1,0.5]];portConstraint=eastwest;" parent="U9Jb5Op2h5-U45iUo1xE-18" vertex="1">
          <mxGeometry y="34" width="140" height="36" as="geometry" />
        </mxCell>
        <mxCell id="U9Jb5Op2h5-U45iUo1xE-21" value="TransformManager" style="swimlane;fontStyle=1;align=center;verticalAlign=top;childLayout=stackLayout;horizontal=1;startSize=26;horizontalStack=0;resizeParent=1;resizeParentMax=0;resizeLast=0;collapsible=1;marginBottom=0;" parent="1" vertex="1">
          <mxGeometry x="1614" y="480" width="140" height="70" as="geometry" />
        </mxCell>
        <mxCell id="U9Jb5Op2h5-U45iUo1xE-22" value="" style="line;strokeWidth=1;fillColor=none;align=left;verticalAlign=middle;spacingTop=-1;spacingLeft=3;spacingRight=3;rotatable=0;labelPosition=right;points=[];portConstraint=eastwest;" parent="U9Jb5Op2h5-U45iUo1xE-21" vertex="1">
          <mxGeometry y="26" width="140" height="8" as="geometry" />
        </mxCell>
        <mxCell id="U9Jb5Op2h5-U45iUo1xE-23" value="+ execute()" style="text;strokeColor=none;fillColor=none;align=left;verticalAlign=top;spacingLeft=4;spacingRight=4;overflow=hidden;rotatable=0;points=[[0,0.5],[1,0.5]];portConstraint=eastwest;" parent="U9Jb5Op2h5-U45iUo1xE-21" vertex="1">
          <mxGeometry y="34" width="140" height="36" as="geometry" />
        </mxCell>
        <mxCell id="U9Jb5Op2h5-U45iUo1xE-25" value="" style="endArrow=block;endSize=16;endFill=0;html=1;exitX=0.5;exitY=0;exitDx=0;exitDy=0;entryX=0.456;entryY=0.674;entryDx=0;entryDy=0;entryPerimeter=0;" parent="1" source="U9Jb5Op2h5-U45iUo1xE-18" target="YvYd5aY6UWbIAvhugofM-136" edge="1">
          <mxGeometry width="160" relative="1" as="geometry">
            <mxPoint x="1340" y="489.9999999999998" as="sourcePoint" />
            <mxPoint x="1360" y="400" as="targetPoint" />
            <Array as="points">
              <mxPoint x="1510" y="440" />
              <mxPoint x="1360" y="440" />
            </Array>
          </mxGeometry>
        </mxCell>
        <mxCell id="U9Jb5Op2h5-U45iUo1xE-27" value="" style="endArrow=block;endSize=16;endFill=0;html=1;entryX=0.458;entryY=0.538;entryDx=0;entryDy=0;entryPerimeter=0;" parent="1" target="YvYd5aY6UWbIAvhugofM-136" edge="1">
          <mxGeometry width="160" relative="1" as="geometry">
            <mxPoint x="1680" y="480" as="sourcePoint" />
            <mxPoint x="1360" y="380" as="targetPoint" />
            <Array as="points">
              <mxPoint x="1680" y="440" />
              <mxPoint x="1360" y="440" />
            </Array>
          </mxGeometry>
        </mxCell>
        <mxCell id="U9Jb5Op2h5-U45iUo1xE-28" style="edgeStyle=orthogonalEdgeStyle;rounded=1;orthogonalLoop=1;jettySize=auto;html=1;exitX=0.5;exitY=0;exitDx=0;exitDy=0;entryX=0;entryY=0.5;entryDx=0;entryDy=0;endArrow=diamondThin;endFill=0;endSize=15;" parent="1" source="CbwfGJ5KhDUAyiqLK0re-5" target="U9Jb5Op2h5-U45iUo1xE-23" edge="1">
          <mxGeometry relative="1" as="geometry">
            <Array as="points">
              <mxPoint x="-630" y="20" />
              <mxPoint x="1590" y="20" />
              <mxPoint x="1590" y="532" />
            </Array>
          </mxGeometry>
        </mxCell>
        <mxCell id="U9Jb5Op2h5-U45iUo1xE-30" style="edgeStyle=orthogonalEdgeStyle;rounded=1;orthogonalLoop=1;jettySize=auto;html=1;exitX=0;exitY=0.5;exitDx=0;exitDy=0;entryX=0.25;entryY=0;entryDx=0;entryDy=0;endArrow=diamondThin;endFill=0;endSize=15;" parent="1" source="U9Jb5Op2h5-U45iUo1xE-20" target="2_hk0qNhQiP1PXoeNQw0-15" edge="1">
          <mxGeometry relative="1" as="geometry">
            <Array as="points">
              <mxPoint x="1430" y="532" />
              <mxPoint x="1430" y="650" />
              <mxPoint x="840" y="650" />
              <mxPoint x="840" y="1040" />
              <mxPoint x="-360" y="1040" />
            </Array>
          </mxGeometry>
        </mxCell>
        <mxCell id="q7ZRytTbzjanhuIPvE7e-4" style="edgeStyle=orthogonalEdgeStyle;rounded=1;orthogonalLoop=1;jettySize=auto;html=1;exitX=0.5;exitY=0;exitDx=0;exitDy=0;endArrow=block;endFill=0;endSize=16;" parent="1" source="q7ZRytTbzjanhuIPvE7e-1" target="YvYd5aY6UWbIAvhugofM-177" edge="1">
          <mxGeometry relative="1" as="geometry">
            <Array as="points">
              <mxPoint x="2164" y="1250" />
              <mxPoint x="1842" y="1250" />
            </Array>
          </mxGeometry>
        </mxCell>
        <mxCell id="q7ZRytTbzjanhuIPvE7e-1" value="LoadCamera" style="swimlane;fontStyle=1;align=center;verticalAlign=top;childLayout=stackLayout;horizontal=1;startSize=26;horizontalStack=0;resizeParent=1;resizeParentMax=0;resizeLast=0;collapsible=1;marginBottom=0;" parent="1" vertex="1">
          <mxGeometry x="2108.5" y="1265" width="111" height="90" as="geometry" />
        </mxCell>
        <mxCell id="q7ZRytTbzjanhuIPvE7e-2" value="" style="line;strokeWidth=1;fillColor=none;align=left;verticalAlign=middle;spacingTop=-1;spacingLeft=3;spacingRight=3;rotatable=0;labelPosition=right;points=[];portConstraint=eastwest;" parent="q7ZRytTbzjanhuIPvE7e-1" vertex="1">
          <mxGeometry y="26" width="111" height="8" as="geometry" />
        </mxCell>
        <mxCell id="q7ZRytTbzjanhuIPvE7e-3" value="+ execute()&#xa;+ reverseable()" style="text;strokeColor=none;fillColor=none;align=left;verticalAlign=top;spacingLeft=4;spacingRight=4;overflow=hidden;rotatable=0;points=[[0,0.5],[1,0.5]];portConstraint=eastwest;" parent="q7ZRytTbzjanhuIPvE7e-1" vertex="1">
          <mxGeometry y="34" width="111" height="56" as="geometry" />
        </mxCell>
        <mxCell id="q7ZRytTbzjanhuIPvE7e-54" style="edgeStyle=orthogonalEdgeStyle;rounded=1;orthogonalLoop=1;jettySize=auto;html=1;exitX=0.5;exitY=0;exitDx=0;exitDy=0;endArrow=block;endFill=0;endSize=16;" parent="1" source="q7ZRytTbzjanhuIPvE7e-5" target="YvYd5aY6UWbIAvhugofM-173" edge="1">
          <mxGeometry relative="1" as="geometry">
            <Array as="points">
              <mxPoint x="876" y="1570" />
              <mxPoint x="980" y="1570" />
              <mxPoint x="980" y="1261" />
              <mxPoint x="1123" y="1261" />
            </Array>
          </mxGeometry>
        </mxCell>
        <mxCell id="q7ZRytTbzjanhuIPvE7e-5" value="SetScene" style="swimlane;fontStyle=1;align=center;verticalAlign=top;childLayout=stackLayout;horizontal=1;startSize=26;horizontalStack=0;resizeParent=1;resizeParentMax=0;resizeLast=0;collapsible=1;marginBottom=0;" parent="1" vertex="1">
          <mxGeometry x="820" y="1590" width="111" height="70" as="geometry" />
        </mxCell>
        <mxCell id="q7ZRytTbzjanhuIPvE7e-6" value="" style="line;strokeWidth=1;fillColor=none;align=left;verticalAlign=middle;spacingTop=-1;spacingLeft=3;spacingRight=3;rotatable=0;labelPosition=right;points=[];portConstraint=eastwest;" parent="q7ZRytTbzjanhuIPvE7e-5" vertex="1">
          <mxGeometry y="26" width="111" height="8" as="geometry" />
        </mxCell>
        <mxCell id="q7ZRytTbzjanhuIPvE7e-7" value="+ execute()&#xa;+ reverseable()" style="text;strokeColor=none;fillColor=none;align=left;verticalAlign=top;spacingLeft=4;spacingRight=4;overflow=hidden;rotatable=0;points=[[0,0.5],[1,0.5]];portConstraint=eastwest;" parent="q7ZRytTbzjanhuIPvE7e-5" vertex="1">
          <mxGeometry y="34" width="111" height="36" as="geometry" />
        </mxCell>
        <mxCell id="q7ZRytTbzjanhuIPvE7e-53" style="edgeStyle=orthogonalEdgeStyle;rounded=1;orthogonalLoop=1;jettySize=auto;html=1;exitX=0.5;exitY=0;exitDx=0;exitDy=0;endArrow=block;endFill=0;endSize=16;" parent="1" source="q7ZRytTbzjanhuIPvE7e-10" target="YvYd5aY6UWbIAvhugofM-173" edge="1">
          <mxGeometry relative="1" as="geometry">
            <Array as="points">
              <mxPoint x="876" y="1460" />
              <mxPoint x="980" y="1460" />
              <mxPoint x="980" y="1261" />
              <mxPoint x="1123" y="1261" />
            </Array>
          </mxGeometry>
        </mxCell>
        <mxCell id="q7ZRytTbzjanhuIPvE7e-10" value="GetScene" style="swimlane;fontStyle=1;align=center;verticalAlign=top;childLayout=stackLayout;horizontal=1;startSize=26;horizontalStack=0;resizeParent=1;resizeParentMax=0;resizeLast=0;collapsible=1;marginBottom=0;" parent="1" vertex="1">
          <mxGeometry x="820" y="1466" width="111" height="70" as="geometry" />
        </mxCell>
        <mxCell id="q7ZRytTbzjanhuIPvE7e-11" value="" style="line;strokeWidth=1;fillColor=none;align=left;verticalAlign=middle;spacingTop=-1;spacingLeft=3;spacingRight=3;rotatable=0;labelPosition=right;points=[];portConstraint=eastwest;" parent="q7ZRytTbzjanhuIPvE7e-10" vertex="1">
          <mxGeometry y="26" width="111" height="8" as="geometry" />
        </mxCell>
        <mxCell id="q7ZRytTbzjanhuIPvE7e-12" value="+ execute()&#xa;+ reverseable()" style="text;strokeColor=none;fillColor=none;align=left;verticalAlign=top;spacingLeft=4;spacingRight=4;overflow=hidden;rotatable=0;points=[[0,0.5],[1,0.5]];portConstraint=eastwest;" parent="q7ZRytTbzjanhuIPvE7e-10" vertex="1">
          <mxGeometry y="34" width="111" height="36" as="geometry" />
        </mxCell>
        <mxCell id="q7ZRytTbzjanhuIPvE7e-17" style="edgeStyle=orthogonalEdgeStyle;rounded=1;orthogonalLoop=1;jettySize=auto;html=1;exitX=0.5;exitY=0;exitDx=0;exitDy=0;endArrow=block;endFill=0;endSize=16;" parent="1" source="q7ZRytTbzjanhuIPvE7e-13" target="YvYd5aY6UWbIAvhugofM-173" edge="1">
          <mxGeometry relative="1" as="geometry">
            <Array as="points">
              <mxPoint x="1125" y="1471" />
              <mxPoint x="1125" y="1461" />
              <mxPoint x="980" y="1461" />
              <mxPoint x="980" y="1261" />
              <mxPoint x="1122" y="1261" />
            </Array>
          </mxGeometry>
        </mxCell>
        <mxCell id="q7ZRytTbzjanhuIPvE7e-13" value="ClearScene" style="swimlane;fontStyle=1;align=center;verticalAlign=top;childLayout=stackLayout;horizontal=1;startSize=26;horizontalStack=0;resizeParent=1;resizeParentMax=0;resizeLast=0;collapsible=1;marginBottom=0;" parent="1" vertex="1">
          <mxGeometry x="1055" y="1471" width="135" height="70" as="geometry" />
        </mxCell>
        <mxCell id="q7ZRytTbzjanhuIPvE7e-14" value="" style="line;strokeWidth=1;fillColor=none;align=left;verticalAlign=middle;spacingTop=-1;spacingLeft=3;spacingRight=3;rotatable=0;labelPosition=right;points=[];portConstraint=eastwest;" parent="q7ZRytTbzjanhuIPvE7e-13" vertex="1">
          <mxGeometry y="26" width="135" height="8" as="geometry" />
        </mxCell>
        <mxCell id="q7ZRytTbzjanhuIPvE7e-15" value="+ execute()&#xa;+ reverseable()" style="text;strokeColor=none;fillColor=none;align=left;verticalAlign=top;spacingLeft=4;spacingRight=4;overflow=hidden;rotatable=0;points=[[0,0.5],[1,0.5]];portConstraint=eastwest;" parent="q7ZRytTbzjanhuIPvE7e-13" vertex="1">
          <mxGeometry y="34" width="135" height="36" as="geometry" />
        </mxCell>
        <mxCell id="q7ZRytTbzjanhuIPvE7e-27" style="edgeStyle=orthogonalEdgeStyle;rounded=1;orthogonalLoop=1;jettySize=auto;html=1;exitX=0.5;exitY=0;exitDx=0;exitDy=0;endArrow=block;endFill=0;endSize=16;" parent="1" source="q7ZRytTbzjanhuIPvE7e-18" target="YvYd5aY6UWbIAvhugofM-173" edge="1">
          <mxGeometry relative="1" as="geometry">
            <Array as="points">
              <mxPoint x="1125" y="1561" />
              <mxPoint x="980" y="1560" />
              <mxPoint x="980" y="1261" />
              <mxPoint x="1122" y="1261" />
            </Array>
          </mxGeometry>
        </mxCell>
        <mxCell id="q7ZRytTbzjanhuIPvE7e-18" value="GetSceneObject" style="swimlane;fontStyle=1;align=center;verticalAlign=top;childLayout=stackLayout;horizontal=1;startSize=26;horizontalStack=0;resizeParent=1;resizeParentMax=0;resizeLast=0;collapsible=1;marginBottom=0;" parent="1" vertex="1">
          <mxGeometry x="1052.5" y="1561" width="135" height="80" as="geometry" />
        </mxCell>
        <mxCell id="q7ZRytTbzjanhuIPvE7e-19" value="" style="line;strokeWidth=1;fillColor=none;align=left;verticalAlign=middle;spacingTop=-1;spacingLeft=3;spacingRight=3;rotatable=0;labelPosition=right;points=[];portConstraint=eastwest;" parent="q7ZRytTbzjanhuIPvE7e-18" vertex="1">
          <mxGeometry y="26" width="135" height="8" as="geometry" />
        </mxCell>
        <mxCell id="q7ZRytTbzjanhuIPvE7e-20" value="+ execute()&#xa;+ reverseable()" style="text;strokeColor=none;fillColor=none;align=left;verticalAlign=top;spacingLeft=4;spacingRight=4;overflow=hidden;rotatable=0;points=[[0,0.5],[1,0.5]];portConstraint=eastwest;" parent="q7ZRytTbzjanhuIPvE7e-18" vertex="1">
          <mxGeometry y="34" width="135" height="46" as="geometry" />
        </mxCell>
        <mxCell id="q7ZRytTbzjanhuIPvE7e-28" style="edgeStyle=orthogonalEdgeStyle;rounded=1;orthogonalLoop=1;jettySize=auto;html=1;exitX=0.5;exitY=0;exitDx=0;exitDy=0;endArrow=block;endFill=0;endSize=16;" parent="1" source="q7ZRytTbzjanhuIPvE7e-21" target="YvYd5aY6UWbIAvhugofM-173" edge="1">
          <mxGeometry relative="1" as="geometry">
            <Array as="points">
              <mxPoint x="1123" y="1651" />
              <mxPoint x="980" y="1651" />
              <mxPoint x="980" y="1261" />
              <mxPoint x="1123" y="1261" />
            </Array>
          </mxGeometry>
        </mxCell>
        <mxCell id="q7ZRytTbzjanhuIPvE7e-21" value="GetSceneObjects" style="swimlane;fontStyle=1;align=center;verticalAlign=top;childLayout=stackLayout;horizontal=1;startSize=26;horizontalStack=0;resizeParent=1;resizeParentMax=0;resizeLast=0;collapsible=1;marginBottom=0;" parent="1" vertex="1">
          <mxGeometry x="1055" y="1670" width="135" height="80" as="geometry" />
        </mxCell>
        <mxCell id="q7ZRytTbzjanhuIPvE7e-22" value="" style="line;strokeWidth=1;fillColor=none;align=left;verticalAlign=middle;spacingTop=-1;spacingLeft=3;spacingRight=3;rotatable=0;labelPosition=right;points=[];portConstraint=eastwest;" parent="q7ZRytTbzjanhuIPvE7e-21" vertex="1">
          <mxGeometry y="26" width="135" height="8" as="geometry" />
        </mxCell>
        <mxCell id="q7ZRytTbzjanhuIPvE7e-23" value="+ execute()&#xa;+ reverseable()" style="text;strokeColor=none;fillColor=none;align=left;verticalAlign=top;spacingLeft=4;spacingRight=4;overflow=hidden;rotatable=0;points=[[0,0.5],[1,0.5]];portConstraint=eastwest;" parent="q7ZRytTbzjanhuIPvE7e-21" vertex="1">
          <mxGeometry y="34" width="135" height="46" as="geometry" />
        </mxCell>
        <mxCell id="q7ZRytTbzjanhuIPvE7e-51" style="edgeStyle=orthogonalEdgeStyle;rounded=1;orthogonalLoop=1;jettySize=auto;html=1;exitX=0.5;exitY=0;exitDx=0;exitDy=0;endArrow=block;endFill=0;endSize=16;" parent="1" source="q7ZRytTbzjanhuIPvE7e-24" target="YvYd5aY6UWbIAvhugofM-173" edge="1">
          <mxGeometry relative="1" as="geometry">
            <Array as="points">
              <mxPoint x="1123" y="1261" />
            </Array>
          </mxGeometry>
        </mxCell>
        <mxCell id="q7ZRytTbzjanhuIPvE7e-24" value="GetMainCamera" style="swimlane;fontStyle=1;align=center;verticalAlign=top;childLayout=stackLayout;horizontal=1;startSize=26;horizontalStack=0;resizeParent=1;resizeParentMax=0;resizeLast=0;collapsible=1;marginBottom=0;" parent="1" vertex="1">
          <mxGeometry x="820" y="1264" width="111" height="70" as="geometry" />
        </mxCell>
        <mxCell id="q7ZRytTbzjanhuIPvE7e-25" value="" style="line;strokeWidth=1;fillColor=none;align=left;verticalAlign=middle;spacingTop=-1;spacingLeft=3;spacingRight=3;rotatable=0;labelPosition=right;points=[];portConstraint=eastwest;" parent="q7ZRytTbzjanhuIPvE7e-24" vertex="1">
          <mxGeometry y="26" width="111" height="8" as="geometry" />
        </mxCell>
        <mxCell id="q7ZRytTbzjanhuIPvE7e-26" value="+ execute()&#xa;+ reverseable()" style="text;strokeColor=none;fillColor=none;align=left;verticalAlign=top;spacingLeft=4;spacingRight=4;overflow=hidden;rotatable=0;points=[[0,0.5],[1,0.5]];portConstraint=eastwest;" parent="q7ZRytTbzjanhuIPvE7e-24" vertex="1">
          <mxGeometry y="34" width="111" height="36" as="geometry" />
        </mxCell>
        <mxCell id="q7ZRytTbzjanhuIPvE7e-33" style="edgeStyle=orthogonalEdgeStyle;rounded=1;orthogonalLoop=1;jettySize=auto;html=1;exitX=0.5;exitY=0;exitDx=0;exitDy=0;endArrow=block;endFill=0;endSize=16;" parent="1" source="q7ZRytTbzjanhuIPvE7e-30" target="YvYd5aY6UWbIAvhugofM-170" edge="1">
          <mxGeometry relative="1" as="geometry">
            <Array as="points">
              <mxPoint x="1580" y="1141" />
              <mxPoint x="1363" y="1141" />
            </Array>
          </mxGeometry>
        </mxCell>
        <mxCell id="q7ZRytTbzjanhuIPvE7e-30" value="ModelsCommand" style="swimlane;fontStyle=1;align=center;verticalAlign=top;childLayout=stackLayout;horizontal=1;startSize=26;horizontalStack=0;resizeParent=1;resizeParentMax=0;resizeLast=0;collapsible=1;marginBottom=0;" parent="1" vertex="1">
          <mxGeometry x="1500" y="1150" width="160" height="80" as="geometry" />
        </mxCell>
        <mxCell id="q7ZRytTbzjanhuIPvE7e-31" value="" style="line;strokeWidth=1;fillColor=none;align=left;verticalAlign=middle;spacingTop=-1;spacingLeft=3;spacingRight=3;rotatable=0;labelPosition=right;points=[];portConstraint=eastwest;" parent="q7ZRytTbzjanhuIPvE7e-30" vertex="1">
          <mxGeometry y="26" width="160" height="8" as="geometry" />
        </mxCell>
        <mxCell id="q7ZRytTbzjanhuIPvE7e-32" value="+ execute()&#xa;+ reverseable()" style="text;strokeColor=none;fillColor=none;align=left;verticalAlign=top;spacingLeft=4;spacingRight=4;overflow=hidden;rotatable=0;points=[[0,0.5],[1,0.5]];portConstraint=eastwest;" parent="q7ZRytTbzjanhuIPvE7e-30" vertex="1">
          <mxGeometry y="34" width="160" height="46" as="geometry" />
        </mxCell>
        <mxCell id="q7ZRytTbzjanhuIPvE7e-43" style="edgeStyle=orthogonalEdgeStyle;rounded=1;orthogonalLoop=1;jettySize=auto;html=1;exitX=0.5;exitY=0;exitDx=0;exitDy=0;endArrow=block;endFill=0;endSize=16;" parent="1" source="q7ZRytTbzjanhuIPvE7e-34" target="q7ZRytTbzjanhuIPvE7e-32" edge="1">
          <mxGeometry relative="1" as="geometry">
            <Array as="points">
              <mxPoint x="1580" y="1261" />
              <mxPoint x="1580" y="1261" />
            </Array>
          </mxGeometry>
        </mxCell>
        <mxCell id="q7ZRytTbzjanhuIPvE7e-34" value="RotateModels" style="swimlane;fontStyle=1;align=center;verticalAlign=top;childLayout=stackLayout;horizontal=1;startSize=26;horizontalStack=0;resizeParent=1;resizeParentMax=0;resizeLast=0;collapsible=1;marginBottom=0;" parent="1" vertex="1">
          <mxGeometry x="1517.75" y="1254" width="124.5" height="70" as="geometry" />
        </mxCell>
        <mxCell id="q7ZRytTbzjanhuIPvE7e-35" value="" style="line;strokeWidth=1;fillColor=none;align=left;verticalAlign=middle;spacingTop=-1;spacingLeft=3;spacingRight=3;rotatable=0;labelPosition=right;points=[];portConstraint=eastwest;" parent="q7ZRytTbzjanhuIPvE7e-34" vertex="1">
          <mxGeometry y="26" width="124.5" height="8" as="geometry" />
        </mxCell>
        <mxCell id="q7ZRytTbzjanhuIPvE7e-36" value="+ execute()&#xa;+ reverseable()" style="text;strokeColor=none;fillColor=none;align=left;verticalAlign=top;spacingLeft=4;spacingRight=4;overflow=hidden;rotatable=0;points=[[0,0.5],[1,0.5]];portConstraint=eastwest;" parent="q7ZRytTbzjanhuIPvE7e-34" vertex="1">
          <mxGeometry y="34" width="124.5" height="36" as="geometry" />
        </mxCell>
        <mxCell id="q7ZRytTbzjanhuIPvE7e-44" style="edgeStyle=orthogonalEdgeStyle;rounded=1;orthogonalLoop=1;jettySize=auto;html=1;exitX=0.5;exitY=0;exitDx=0;exitDy=0;endArrow=block;endFill=0;endSize=16;" parent="1" source="q7ZRytTbzjanhuIPvE7e-37" target="q7ZRytTbzjanhuIPvE7e-32" edge="1">
          <mxGeometry relative="1" as="geometry">
            <Array as="points">
              <mxPoint x="1580" y="1341" />
              <mxPoint x="1480" y="1341" />
              <mxPoint x="1480" y="1251" />
              <mxPoint x="1580" y="1251" />
            </Array>
          </mxGeometry>
        </mxCell>
        <mxCell id="q7ZRytTbzjanhuIPvE7e-37" value="MoveModels" style="swimlane;fontStyle=1;align=center;verticalAlign=top;childLayout=stackLayout;horizontal=1;startSize=26;horizontalStack=0;resizeParent=1;resizeParentMax=0;resizeLast=0;collapsible=1;marginBottom=0;" parent="1" vertex="1">
          <mxGeometry x="1517.75" y="1351" width="124.5" height="70" as="geometry" />
        </mxCell>
        <mxCell id="q7ZRytTbzjanhuIPvE7e-38" value="" style="line;strokeWidth=1;fillColor=none;align=left;verticalAlign=middle;spacingTop=-1;spacingLeft=3;spacingRight=3;rotatable=0;labelPosition=right;points=[];portConstraint=eastwest;" parent="q7ZRytTbzjanhuIPvE7e-37" vertex="1">
          <mxGeometry y="26" width="124.5" height="8" as="geometry" />
        </mxCell>
        <mxCell id="q7ZRytTbzjanhuIPvE7e-39" value="+ execute()&#xa;+ reverseable()" style="text;strokeColor=none;fillColor=none;align=left;verticalAlign=top;spacingLeft=4;spacingRight=4;overflow=hidden;rotatable=0;points=[[0,0.5],[1,0.5]];portConstraint=eastwest;" parent="q7ZRytTbzjanhuIPvE7e-37" vertex="1">
          <mxGeometry y="34" width="124.5" height="36" as="geometry" />
        </mxCell>
        <mxCell id="q7ZRytTbzjanhuIPvE7e-46" style="edgeStyle=orthogonalEdgeStyle;rounded=1;orthogonalLoop=1;jettySize=auto;html=1;exitX=0.5;exitY=0;exitDx=0;exitDy=0;endArrow=block;endFill=0;endSize=16;" parent="1" source="q7ZRytTbzjanhuIPvE7e-40" target="q7ZRytTbzjanhuIPvE7e-32" edge="1">
          <mxGeometry relative="1" as="geometry">
            <Array as="points">
              <mxPoint x="1582" y="1441" />
              <mxPoint x="1480" y="1441" />
              <mxPoint x="1480" y="1251" />
              <mxPoint x="1580" y="1251" />
            </Array>
          </mxGeometry>
        </mxCell>
        <mxCell id="q7ZRytTbzjanhuIPvE7e-40" value="ScaleModels" style="swimlane;fontStyle=1;align=center;verticalAlign=top;childLayout=stackLayout;horizontal=1;startSize=26;horizontalStack=0;resizeParent=1;resizeParentMax=0;resizeLast=0;collapsible=1;marginBottom=0;" parent="1" vertex="1">
          <mxGeometry x="1520" y="1451" width="124.5" height="80" as="geometry" />
        </mxCell>
        <mxCell id="q7ZRytTbzjanhuIPvE7e-41" value="" style="line;strokeWidth=1;fillColor=none;align=left;verticalAlign=middle;spacingTop=-1;spacingLeft=3;spacingRight=3;rotatable=0;labelPosition=right;points=[];portConstraint=eastwest;" parent="q7ZRytTbzjanhuIPvE7e-40" vertex="1">
          <mxGeometry y="26" width="124.5" height="8" as="geometry" />
        </mxCell>
        <mxCell id="q7ZRytTbzjanhuIPvE7e-42" value="+ execute()&#xa;+ reverseable()" style="text;strokeColor=none;fillColor=none;align=left;verticalAlign=top;spacingLeft=4;spacingRight=4;overflow=hidden;rotatable=0;points=[[0,0.5],[1,0.5]];portConstraint=eastwest;" parent="q7ZRytTbzjanhuIPvE7e-40" vertex="1">
          <mxGeometry y="34" width="124.5" height="46" as="geometry" />
        </mxCell>
        <mxCell id="q7ZRytTbzjanhuIPvE7e-52" style="edgeStyle=orthogonalEdgeStyle;rounded=1;orthogonalLoop=1;jettySize=auto;html=1;exitX=0.5;exitY=0;exitDx=0;exitDy=0;endArrow=block;endFill=0;endSize=16;" parent="1" source="q7ZRytTbzjanhuIPvE7e-47" target="YvYd5aY6UWbIAvhugofM-173" edge="1">
          <mxGeometry relative="1" as="geometry">
            <Array as="points">
              <mxPoint x="876" y="1360" />
              <mxPoint x="980" y="1360" />
              <mxPoint x="980" y="1261" />
              <mxPoint x="1123" y="1261" />
            </Array>
          </mxGeometry>
        </mxCell>
        <mxCell id="q7ZRytTbzjanhuIPvE7e-47" value="SetCamera" style="swimlane;fontStyle=1;align=center;verticalAlign=top;childLayout=stackLayout;horizontal=1;startSize=26;horizontalStack=0;resizeParent=1;resizeParentMax=0;resizeLast=0;collapsible=1;marginBottom=0;" parent="1" vertex="1">
          <mxGeometry x="820" y="1367" width="111" height="70" as="geometry" />
        </mxCell>
        <mxCell id="q7ZRytTbzjanhuIPvE7e-48" value="" style="line;strokeWidth=1;fillColor=none;align=left;verticalAlign=middle;spacingTop=-1;spacingLeft=3;spacingRight=3;rotatable=0;labelPosition=right;points=[];portConstraint=eastwest;" parent="q7ZRytTbzjanhuIPvE7e-47" vertex="1">
          <mxGeometry y="26" width="111" height="8" as="geometry" />
        </mxCell>
        <mxCell id="q7ZRytTbzjanhuIPvE7e-49" value="+ execute()&#xa;+ reverseable()" style="text;strokeColor=none;fillColor=none;align=left;verticalAlign=top;spacingLeft=4;spacingRight=4;overflow=hidden;rotatable=0;points=[[0,0.5],[1,0.5]];portConstraint=eastwest;" parent="q7ZRytTbzjanhuIPvE7e-47" vertex="1">
          <mxGeometry y="34" width="111" height="36" as="geometry" />
        </mxCell>
        <mxCell id="q7ZRytTbzjanhuIPvE7e-63" style="edgeStyle=orthogonalEdgeStyle;rounded=1;orthogonalLoop=1;jettySize=auto;html=1;endArrow=block;endFill=0;endSize=16;" parent="1" source="q7ZRytTbzjanhuIPvE7e-57" target="2_hk0qNhQiP1PXoeNQw0-13" edge="1">
          <mxGeometry relative="1" as="geometry">
            <Array as="points">
              <mxPoint x="-165" y="1190" />
              <mxPoint x="-165" y="1190" />
            </Array>
          </mxGeometry>
        </mxCell>
        <mxCell id="q7ZRytTbzjanhuIPvE7e-57" value="BaseCameraDirector" style="swimlane;fontStyle=1;align=center;verticalAlign=top;childLayout=stackLayout;horizontal=1;startSize=26;horizontalStack=0;resizeParent=1;resizeParentMax=0;resizeLast=0;collapsible=1;marginBottom=0;" parent="1" vertex="1">
          <mxGeometry x="-235" y="1254" width="140" height="60" as="geometry" />
        </mxCell>
        <mxCell id="q7ZRytTbzjanhuIPvE7e-58" value="" style="line;strokeWidth=1;fillColor=none;align=left;verticalAlign=middle;spacingTop=-1;spacingLeft=3;spacingRight=3;rotatable=0;labelPosition=right;points=[];portConstraint=eastwest;" parent="q7ZRytTbzjanhuIPvE7e-57" vertex="1">
          <mxGeometry y="26" width="140" height="8" as="geometry" />
        </mxCell>
        <mxCell id="q7ZRytTbzjanhuIPvE7e-59" value="+ create()" style="text;strokeColor=none;fillColor=none;align=left;verticalAlign=top;spacingLeft=4;spacingRight=4;overflow=hidden;rotatable=0;points=[[0,0.5],[1,0.5]];portConstraint=eastwest;" parent="q7ZRytTbzjanhuIPvE7e-57" vertex="1">
          <mxGeometry y="34" width="140" height="26" as="geometry" />
        </mxCell>
        <mxCell id="q7ZRytTbzjanhuIPvE7e-68" style="edgeStyle=orthogonalEdgeStyle;rounded=1;orthogonalLoop=1;jettySize=auto;html=1;endArrow=block;endFill=0;endSize=16;" parent="1" source="q7ZRytTbzjanhuIPvE7e-64" target="2_hk0qNhQiP1PXoeNQw0-13" edge="1">
          <mxGeometry relative="1" as="geometry">
            <Array as="points">
              <mxPoint x="-5" y="1220" />
              <mxPoint x="-165" y="1220" />
            </Array>
          </mxGeometry>
        </mxCell>
        <mxCell id="q7ZRytTbzjanhuIPvE7e-64" value="BaseSceneDirector" style="swimlane;fontStyle=1;align=center;verticalAlign=top;childLayout=stackLayout;horizontal=1;startSize=26;horizontalStack=0;resizeParent=1;resizeParentMax=0;resizeLast=0;collapsible=1;marginBottom=0;" parent="1" vertex="1">
          <mxGeometry x="-75" y="1254" width="140" height="60" as="geometry" />
        </mxCell>
        <mxCell id="q7ZRytTbzjanhuIPvE7e-65" value="" style="line;strokeWidth=1;fillColor=none;align=left;verticalAlign=middle;spacingTop=-1;spacingLeft=3;spacingRight=3;rotatable=0;labelPosition=right;points=[];portConstraint=eastwest;" parent="q7ZRytTbzjanhuIPvE7e-64" vertex="1">
          <mxGeometry y="26" width="140" height="8" as="geometry" />
        </mxCell>
        <mxCell id="q7ZRytTbzjanhuIPvE7e-66" value="+ create()" style="text;strokeColor=none;fillColor=none;align=left;verticalAlign=top;spacingLeft=4;spacingRight=4;overflow=hidden;rotatable=0;points=[[0,0.5],[1,0.5]];portConstraint=eastwest;" parent="q7ZRytTbzjanhuIPvE7e-64" vertex="1">
          <mxGeometry y="34" width="140" height="26" as="geometry" />
        </mxCell>
        <mxCell id="reQZqPvSp4bL1c7pLp1K-1" value="ScaleModelAdapter" style="swimlane;fontStyle=1;align=center;verticalAlign=top;childLayout=stackLayout;horizontal=1;startSize=26;horizontalStack=0;resizeParent=1;resizeParentMax=0;resizeLast=0;collapsible=1;marginBottom=0;" parent="1" vertex="1">
          <mxGeometry x="-1259" y="490" width="140" height="60" as="geometry" />
        </mxCell>
        <mxCell id="reQZqPvSp4bL1c7pLp1K-2" value="" style="line;strokeWidth=1;fillColor=none;align=left;verticalAlign=middle;spacingTop=-1;spacingLeft=3;spacingRight=3;rotatable=0;labelPosition=right;points=[];portConstraint=eastwest;" parent="reQZqPvSp4bL1c7pLp1K-1" vertex="1">
          <mxGeometry y="26" width="140" height="8" as="geometry" />
        </mxCell>
        <mxCell id="reQZqPvSp4bL1c7pLp1K-3" value="+ request()" style="text;strokeColor=none;fillColor=none;align=left;verticalAlign=top;spacingLeft=4;spacingRight=4;overflow=hidden;rotatable=0;points=[[0,0.5],[1,0.5]];portConstraint=eastwest;" parent="reQZqPvSp4bL1c7pLp1K-1" vertex="1">
          <mxGeometry y="34" width="140" height="26" as="geometry" />
        </mxCell>
        <mxCell id="reQZqPvSp4bL1c7pLp1K-4" value="RotateModelAdapter" style="swimlane;fontStyle=1;align=center;verticalAlign=top;childLayout=stackLayout;horizontal=1;startSize=26;horizontalStack=0;resizeParent=1;resizeParentMax=0;resizeLast=0;collapsible=1;marginBottom=0;" parent="1" vertex="1">
          <mxGeometry x="-1260" y="580" width="140" height="60" as="geometry" />
        </mxCell>
        <mxCell id="reQZqPvSp4bL1c7pLp1K-5" value="" style="line;strokeWidth=1;fillColor=none;align=left;verticalAlign=middle;spacingTop=-1;spacingLeft=3;spacingRight=3;rotatable=0;labelPosition=right;points=[];portConstraint=eastwest;" parent="reQZqPvSp4bL1c7pLp1K-4" vertex="1">
          <mxGeometry y="26" width="140" height="8" as="geometry" />
        </mxCell>
        <mxCell id="reQZqPvSp4bL1c7pLp1K-6" value="+ request()" style="text;strokeColor=none;fillColor=none;align=left;verticalAlign=top;spacingLeft=4;spacingRight=4;overflow=hidden;rotatable=0;points=[[0,0.5],[1,0.5]];portConstraint=eastwest;" parent="reQZqPvSp4bL1c7pLp1K-4" vertex="1">
          <mxGeometry y="34" width="140" height="26" as="geometry" />
        </mxCell>
        <mxCell id="reQZqPvSp4bL1c7pLp1K-7" value="DrawModelAdapter" style="swimlane;fontStyle=1;align=center;verticalAlign=top;childLayout=stackLayout;horizontal=1;startSize=26;horizontalStack=0;resizeParent=1;resizeParentMax=0;resizeLast=0;collapsible=1;marginBottom=0;" parent="1" vertex="1">
          <mxGeometry x="-1259" y="670" width="140" height="60" as="geometry" />
        </mxCell>
        <mxCell id="reQZqPvSp4bL1c7pLp1K-8" value="" style="line;strokeWidth=1;fillColor=none;align=left;verticalAlign=middle;spacingTop=-1;spacingLeft=3;spacingRight=3;rotatable=0;labelPosition=right;points=[];portConstraint=eastwest;" parent="reQZqPvSp4bL1c7pLp1K-7" vertex="1">
          <mxGeometry y="26" width="140" height="8" as="geometry" />
        </mxCell>
        <mxCell id="reQZqPvSp4bL1c7pLp1K-9" value="+ request()" style="text;strokeColor=none;fillColor=none;align=left;verticalAlign=top;spacingLeft=4;spacingRight=4;overflow=hidden;rotatable=0;points=[[0,0.5],[1,0.5]];portConstraint=eastwest;" parent="reQZqPvSp4bL1c7pLp1K-7" vertex="1">
          <mxGeometry y="34" width="140" height="26" as="geometry" />
        </mxCell>
        <mxCell id="reQZqPvSp4bL1c7pLp1K-10" style="edgeStyle=orthogonalEdgeStyle;rounded=0;orthogonalLoop=1;jettySize=auto;html=1;exitX=0.5;exitY=0;exitDx=0;exitDy=0;endArrow=block;endFill=0;" parent="1" source="reQZqPvSp4bL1c7pLp1K-1" edge="1">
          <mxGeometry relative="1" as="geometry">
            <mxPoint x="-1199" y="479.47" as="sourcePoint" />
            <mxPoint x="-1069" y="360" as="targetPoint" />
            <Array as="points">
              <mxPoint x="-1189" y="470" />
              <mxPoint x="-1069" y="470" />
            </Array>
          </mxGeometry>
        </mxCell>
        <mxCell id="reQZqPvSp4bL1c7pLp1K-11" style="edgeStyle=orthogonalEdgeStyle;rounded=0;orthogonalLoop=1;jettySize=auto;html=1;exitX=0.5;exitY=0;exitDx=0;exitDy=0;endArrow=block;endFill=0;" parent="1" target="Ah3sRNA3tBeZJ3L1r1vs-52" edge="1">
          <mxGeometry relative="1" as="geometry">
            <mxPoint x="-1189" y="580" as="sourcePoint" />
            <mxPoint x="-1069" y="450" as="targetPoint" />
            <Array as="points">
              <mxPoint x="-1189" y="560" />
              <mxPoint x="-1069" y="560" />
            </Array>
          </mxGeometry>
        </mxCell>
        <mxCell id="reQZqPvSp4bL1c7pLp1K-12" style="edgeStyle=orthogonalEdgeStyle;rounded=0;orthogonalLoop=1;jettySize=auto;html=1;exitX=0.5;exitY=0;exitDx=0;exitDy=0;endArrow=block;endFill=0;" parent="1" edge="1">
          <mxGeometry relative="1" as="geometry">
            <mxPoint x="-1189" y="670" as="sourcePoint" />
            <mxPoint x="-1069" y="360" as="targetPoint" />
            <Array as="points">
              <mxPoint x="-1189" y="650" />
              <mxPoint x="-1069" y="650" />
            </Array>
          </mxGeometry>
        </mxCell>
        <mxCell id="reQZqPvSp4bL1c7pLp1K-13" value="MoveCameraAdapter" style="swimlane;fontStyle=1;align=center;verticalAlign=top;childLayout=stackLayout;horizontal=1;startSize=26;horizontalStack=0;resizeParent=1;resizeParentMax=0;resizeLast=0;collapsible=1;marginBottom=0;" parent="1" vertex="1">
          <mxGeometry x="-930" y="380" width="140" height="60" as="geometry" />
        </mxCell>
        <mxCell id="reQZqPvSp4bL1c7pLp1K-14" value="" style="line;strokeWidth=1;fillColor=none;align=left;verticalAlign=middle;spacingTop=-1;spacingLeft=3;spacingRight=3;rotatable=0;labelPosition=right;points=[];portConstraint=eastwest;" parent="reQZqPvSp4bL1c7pLp1K-13" vertex="1">
          <mxGeometry y="26" width="140" height="8" as="geometry" />
        </mxCell>
        <mxCell id="reQZqPvSp4bL1c7pLp1K-15" value="+ request()" style="text;strokeColor=none;fillColor=none;align=left;verticalAlign=top;spacingLeft=4;spacingRight=4;overflow=hidden;rotatable=0;points=[[0,0.5],[1,0.5]];portConstraint=eastwest;" parent="reQZqPvSp4bL1c7pLp1K-13" vertex="1">
          <mxGeometry y="34" width="140" height="26" as="geometry" />
        </mxCell>
        <mxCell id="reQZqPvSp4bL1c7pLp1K-17" value="RotateCameraAdapter" style="swimlane;fontStyle=1;align=center;verticalAlign=top;childLayout=stackLayout;horizontal=1;startSize=26;horizontalStack=0;resizeParent=1;resizeParentMax=0;resizeLast=0;collapsible=1;marginBottom=0;" parent="1" vertex="1">
          <mxGeometry x="-930" y="460" width="140" height="60" as="geometry" />
        </mxCell>
        <mxCell id="reQZqPvSp4bL1c7pLp1K-18" value="" style="line;strokeWidth=1;fillColor=none;align=left;verticalAlign=middle;spacingTop=-1;spacingLeft=3;spacingRight=3;rotatable=0;labelPosition=right;points=[];portConstraint=eastwest;" parent="reQZqPvSp4bL1c7pLp1K-17" vertex="1">
          <mxGeometry y="26" width="140" height="8" as="geometry" />
        </mxCell>
        <mxCell id="reQZqPvSp4bL1c7pLp1K-19" value="+ request()" style="text;strokeColor=none;fillColor=none;align=left;verticalAlign=top;spacingLeft=4;spacingRight=4;overflow=hidden;rotatable=0;points=[[0,0.5],[1,0.5]];portConstraint=eastwest;" parent="reQZqPvSp4bL1c7pLp1K-17" vertex="1">
          <mxGeometry y="34" width="140" height="26" as="geometry" />
        </mxCell>
        <mxCell id="reQZqPvSp4bL1c7pLp1K-20" style="edgeStyle=orthogonalEdgeStyle;rounded=0;orthogonalLoop=1;jettySize=auto;html=1;exitX=1;exitY=0.25;exitDx=0;exitDy=0;entryX=0.958;entryY=0.941;entryDx=0;entryDy=0;entryPerimeter=0;endArrow=block;endFill=0;" parent="1" edge="1">
          <mxGeometry relative="1" as="geometry">
            <mxPoint x="-790" y="386.53" as="sourcePoint" />
            <mxPoint x="-725.8800000000001" y="359.9960000000001" as="targetPoint" />
            <Array as="points">
              <mxPoint x="-726" y="387" />
              <mxPoint x="-726" y="370" />
            </Array>
          </mxGeometry>
        </mxCell>
        <mxCell id="reQZqPvSp4bL1c7pLp1K-21" style="edgeStyle=orthogonalEdgeStyle;rounded=0;orthogonalLoop=1;jettySize=auto;html=1;exitX=1;exitY=0.25;exitDx=0;exitDy=0;endArrow=block;endFill=0;" parent="1" edge="1">
          <mxGeometry relative="1" as="geometry">
            <mxPoint x="-790" y="463.26" as="sourcePoint" />
            <mxPoint x="-726" y="360" as="targetPoint" />
            <Array as="points">
              <mxPoint x="-726" y="463.73" />
              <mxPoint x="-726" y="446.73" />
            </Array>
          </mxGeometry>
        </mxCell>
        <mxCell id="reQZqPvSp4bL1c7pLp1K-22" value="" style="endArrow=diamondThin;endFill=1;endSize=24;html=1;entryX=0.386;entryY=-0.006;entryDx=0;entryDy=0;entryPerimeter=0;exitX=0.362;exitY=-0.01;exitDx=0;exitDy=0;exitPerimeter=0;" parent="1" source="YvYd5aY6UWbIAvhugofM-139" target="YvYd5aY6UWbIAvhugofM-1" edge="1">
          <mxGeometry width="160" relative="1" as="geometry">
            <mxPoint x="1110" y="420" as="sourcePoint" />
            <mxPoint x="1293" y="1086" as="targetPoint" />
            <Array as="points">
              <mxPoint x="1120" y="420" />
              <mxPoint x="1910" y="420" />
              <mxPoint x="1910" y="650" />
              <mxPoint x="1910" y="880" />
              <mxPoint x="1351" y="880" />
            </Array>
          </mxGeometry>
        </mxCell>
        <mxCell id="reQZqPvSp4bL1c7pLp1K-24" value="" style="endArrow=diamondThin;endFill=1;endSize=24;html=1;entryX=0.386;entryY=-0.006;entryDx=0;entryDy=0;entryPerimeter=0;exitX=0.25;exitY=0;exitDx=0;exitDy=0;" parent="1" edge="1">
          <mxGeometry width="160" relative="1" as="geometry">
            <mxPoint x="1285" y="480" as="sourcePoint" />
            <mxPoint x="1351" y="910" as="targetPoint" />
            <Array as="points">
              <mxPoint x="1285" y="421" />
              <mxPoint x="1910" y="421" />
              <mxPoint x="1910" y="651" />
              <mxPoint x="1910" y="881" />
              <mxPoint x="1351" y="881" />
            </Array>
          </mxGeometry>
        </mxCell>
        <mxCell id="reQZqPvSp4bL1c7pLp1K-25" value="" style="endArrow=diamondThin;endFill=1;endSize=24;html=1;entryX=0.386;entryY=-0.006;entryDx=0;entryDy=0;entryPerimeter=0;exitX=0.391;exitY=-0.023;exitDx=0;exitDy=0;exitPerimeter=0;" parent="1" source="U9Jb5Op2h5-U45iUo1xE-18" edge="1">
          <mxGeometry width="160" relative="1" as="geometry">
            <mxPoint x="1285.25" y="480" as="sourcePoint" />
            <mxPoint x="1351.25" y="910" as="targetPoint" />
            <Array as="points">
              <mxPoint x="1495" y="420" />
              <mxPoint x="1910.25" y="421" />
              <mxPoint x="1910.25" y="651" />
              <mxPoint x="1910.25" y="881" />
              <mxPoint x="1351.25" y="881" />
            </Array>
          </mxGeometry>
        </mxCell>
        <mxCell id="reQZqPvSp4bL1c7pLp1K-26" value="" style="endArrow=diamondThin;endFill=1;endSize=24;html=1;entryX=0.386;entryY=-0.006;entryDx=0;entryDy=0;entryPerimeter=0;exitX=0.25;exitY=0;exitDx=0;exitDy=0;" parent="1" source="U9Jb5Op2h5-U45iUo1xE-21" edge="1">
          <mxGeometry width="160" relative="1" as="geometry">
            <mxPoint x="1650" y="470" as="sourcePoint" />
            <mxPoint x="1350.5" y="910" as="targetPoint" />
            <Array as="points">
              <mxPoint x="1650" y="420" />
              <mxPoint x="1909.5" y="421" />
              <mxPoint x="1909.5" y="651" />
              <mxPoint x="1909.5" y="881" />
              <mxPoint x="1350.5" y="881" />
            </Array>
          </mxGeometry>
        </mxCell>
        <mxCell id="CbwfGJ5KhDUAyiqLK0re-20" value="" style="endArrow=diamondThin;endFill=0;endSize=24;html=1;entryX=-0.03;entryY=0.346;entryDx=0;entryDy=0;exitX=1.003;exitY=0.386;exitDx=0;exitDy=0;entryPerimeter=0;exitPerimeter=0;" parent="1" source="YvYd5aY6UWbIAvhugofM-149" target="YvYd5aY6UWbIAvhugofM-144" edge="1">
          <mxGeometry width="160" relative="1" as="geometry">
            <mxPoint x="1010" y="560" as="sourcePoint" />
            <mxPoint x="920" y="450" as="targetPoint" />
            <Array as="points">
              <mxPoint x="840" y="497" />
              <mxPoint x="840" y="580" />
              <mxPoint x="890" y="580" />
              <mxPoint x="1220" y="580" />
              <mxPoint x="1220" y="504" />
            </Array>
          </mxGeometry>
        </mxCell>
      </root>
    </mxGraphModel>
  </diagram>
</mxfile>
